<?xml version="1.0" encoding="UTF-8"?>
<svg version="1.1" xmlns="http://www.w3.org/2000/svg" width="1400" height="241">
<path d="M0 0 C462 0 924 0 1400 0 C1400 79.53 1400 159.06 1400 241 C938 241 476 241 0 241 C0 161.47 0 81.94 0 0 Z " fill="#FEFEFE" transform="translate(0,0)"/>
<path d="M0 0 C42.98094694 -0.08060607 42.98094694 -0.08060607 61.0078125 -0.09765625 C73.44923554 -0.10951818 85.89063147 -0.12345442 98.33203125 -0.15087891 C107.39349232 -0.17084346 116.45493136 -0.18372372 125.51641381 -0.18817699 C130.31223854 -0.19077917 135.10800028 -0.19687457 139.90380478 -0.21146011 C144.423051 -0.22509246 148.94220863 -0.22921125 153.46147346 -0.22621536 C155.11498688 -0.226763 156.76850342 -0.23070663 158.42199898 -0.23841095 C185.1271813 -0.35667816 185.1271813 -0.35667816 193.9765625 7.828125 C195.76954492 9.82710966 197.41481586 11.8324246 199 14 C200.07314453 15.17949219 200.07314453 15.17949219 201.16796875 16.3828125 C204.51662003 21.48406645 203.57185917 28.15545426 203.5 34 C203.52320313 35.8871875 203.52320313 35.8871875 203.546875 37.8125 C203.51012236 46.4861239 202.41978363 50.52142353 196.2734375 56.7734375 C195.31695313 57.63195312 194.36046875 58.49046875 193.375 59.375 C191.93253906 60.68597656 191.93253906 60.68597656 190.4609375 62.0234375 C188 64 188 64 186 64 C186 64.66 186 65.32 186 66 C184 67.625 184 67.625 182 69 C183.52551386 72.91519163 185.89470844 74.72476951 189.1875 77.25 C194.41513669 81.40600552 199.9567803 85.91356059 203 92 C203.27269786 96.1817803 203.23173449 100.37284899 203.25 104.5625 C203.2809375 106.2959668 203.2809375 106.2959668 203.3125 108.06445312 C203.35920609 118.3456321 202.02473627 125.73165543 194.8046875 133.28125 C184.59011015 143.0094189 170.8285064 142.43255919 157.57324219 142.34057617 C155.84735631 142.33972829 154.12146936 142.34020817 152.39558411 142.34190369 C147.7455199 142.34275879 143.09569137 142.32521216 138.44568157 142.30418181 C133.57303269 142.2853336 128.70037746 142.28365819 123.82769775 142.28010559 C114.61635261 142.27080893 105.40511523 142.24622758 96.19381738 142.21605712 C83.73546218 142.17614355 71.27707717 142.160039 58.81867409 142.14255047 C39.21236879 142.11440461 19.60629082 142.05461926 0 142 C0 95.14 0 48.28 0 0 Z " fill="#231F20" transform="translate(1131,50)"/>
<path d="M0 0 C43.28098064 -0.20151517 43.28098064 -0.20151517 61.47460938 -0.24414062 C74.01662466 -0.27376174 86.55847148 -0.30850671 99.1003418 -0.37719727 C108.23619771 -0.42720935 117.37191641 -0.45933286 126.50790542 -0.47044247 C131.34036408 -0.47693121 136.17243039 -0.49205992 141.00476265 -0.52865028 C145.56436352 -0.56289188 150.12341493 -0.57299687 154.68313217 -0.56553841 C156.34585888 -0.56690049 158.00860627 -0.57666388 159.67122078 -0.59602737 C173.50284855 -0.74905105 186.46616967 0.83715592 197.16796875 10.546875 C203.08422228 18.468852 203.6521487 25.98961987 203.5625 35.6875 C203.58634766 36.88439453 203.61019531 38.08128906 203.63476562 39.31445312 C203.61854182 49.03251337 203.61854182 49.03251337 200.58984375 52.83203125 C198 55 198 55 196 55 C195.67 55.99 195.34 56.98 195 58 C193.28835912 59.58715791 191.50672181 61.09989386 189.6875 62.5625 C188.72199219 63.34753906 187.75648438 64.13257812 186.76171875 64.94140625 C184.5306699 66.604437 182.53257755 67.88710963 180 69 C180 69.66 180 70.32 180 71 C180.53753906 71.23074219 181.07507812 71.46148437 181.62890625 71.69921875 C184.70239936 73.38533606 187.27570182 75.55611927 189.9375 77.8125 C190.44990234 78.23853516 190.96230469 78.66457031 191.49023438 79.10351562 C202.64050153 88.46860659 202.64050153 88.46860659 203.2746582 94.69799805 C203.30305352 98.02821116 203.32170495 101.35714786 203.3125 104.6875 C203.32861328 105.83412109 203.34472656 106.98074219 203.36132812 108.16210938 C203.36713661 118.30952772 201.99817931 125.81336825 194.87109375 133.28125 C184.45018348 142.85369367 169.97441445 142.43348031 156.66503906 142.34057617 C154.94900528 142.33972828 153.23297041 142.3402082 151.51693726 142.34190369 C146.89373112 142.34275874 142.27076207 142.32521304 137.64761066 142.30418181 C132.80298908 142.28533264 127.95836109 142.28365811 123.1137085 142.28010559 C113.955487 142.27080921 104.7973739 142.24622825 95.63919997 142.21605712 C83.25259572 142.17614242 70.8659615 142.16003877 58.47930908 142.14255047 C38.98612498 142.11440525 19.49316954 142.05461972 0 142 C0 95.14 0 48.28 0 0 Z " fill="#231F20" transform="translate(844,50)"/>
<path d="M0 0 C1.63736442 0.00113098 3.27473086 0.00048973 4.91209412 -0.00177002 C9.3163246 -0.00290832 13.72011107 0.02045604 18.12423921 0.04852581 C22.74195693 0.07368849 27.35968706 0.0758931 31.97746277 0.08062744 C40.70362135 0.09301383 49.42957727 0.12577617 58.15564698 0.1660254 C68.09768947 0.21087882 78.03974212 0.23276414 87.98186076 0.25280714 C108.41665251 0.29451309 128.85125062 0.36559453 149.28588867 0.45410156 C149.28588867 8.70410156 149.28588867 16.95410156 149.28588867 25.45410156 C94.50588867 25.45410156 39.72588867 25.45410156 -16.71411133 25.45410156 C-16.71411133 55.81410156 -16.71411133 86.17410156 -16.71411133 117.45410156 C38.06588867 117.45410156 92.84588867 117.45410156 149.28588867 117.45410156 C149.28588867 125.70410156 149.28588867 133.95410156 149.28588867 142.45410156 C128.30969753 142.54695756 107.33355642 142.61821265 86.35720062 142.66135025 C76.61607334 142.68191801 66.87507664 142.7099271 57.1340332 142.75585938 C48.63724661 142.79590524 40.14055464 142.82157635 31.64367628 142.83045554 C27.1504999 142.83564044 22.6575941 142.84770407 18.164505 142.87702179 C13.92258636 142.90447246 9.6810459 142.91248772 5.43904686 142.90653229 C3.89446636 142.90761944 2.34987124 142.91539494 0.80536842 142.93092346 C-11.38886211 143.047357 -25.28721846 142.69637438 -35.02661133 134.51660156 C-41.62809607 127.99293393 -43.90898758 120.79697667 -44.00738525 111.72888184 C-44.00647888 110.89078979 -44.00557251 110.05269775 -44.00463867 109.18920898 C-44.0113559 108.28741409 -44.01807312 107.3856192 -44.0249939 106.45649719 C-44.04391001 103.49079803 -44.04789488 100.52532596 -44.05004883 97.55957031 C-44.05648121 95.48602711 -44.0632099 93.41248481 -44.07022095 91.33894348 C-44.08217777 86.99734392 -44.08590341 82.65582384 -44.0847168 78.31420898 C-44.08451371 72.76958262 -44.11181295 67.22546936 -44.14626122 61.68096447 C-44.16857306 57.39909048 -44.17255302 53.11733914 -44.17149734 48.83541298 C-44.17384695 46.79221135 -44.18263414 44.74900602 -44.19816208 42.70586205 C-44.36163645 18.9745981 -44.36163645 18.9745981 -35.27661133 8.92675781 C-25.60238733 -0.1911983 -12.523199 -0.12263637 0 0 Z " fill="#231E20" transform="translate(43.714111328125,49.5458984375)"/>
<path d="M0 0 C8.58 0 17.16 0 26 0 C26 19.14 26 38.28 26 58 C73.19 58 120.38 58 169 58 C169 38.86 169 19.72 169 0 C177.91 0 186.82 0 196 0 C196 46.86 196 93.72 196 142 C187.09 142 178.18 142 169 142 C169 122.53 169 103.06 169 83 C121.81 83 74.62 83 26 83 C26 102.47 26 121.94 26 142 C17.42 142 8.84 142 0 142 C0 95.14 0 48.28 0 0 Z " fill="#242021" transform="translate(271,50)"/>
<path d="M0 0 C8.91 0 17.82 0 27 0 C27 38.61 27 77.22 27 117 C73.53 117 120.06 117 168 117 C168 78.39 168 39.78 168 0 C176.58 0 185.16 0 194 0 C194.09047222 15.21255588 194.16408172 30.42498953 194.20724869 45.63774681 C194.22782919 52.70211835 194.25586269 59.76631022 194.30175781 66.83056641 C194.34605174 73.6516451 194.36915743 80.47253726 194.37950897 87.29375076 C194.38688328 89.89239051 194.40128351 92.4910204 194.42292023 95.08958054 C194.45207856 98.73751386 194.45595064 102.3846832 194.45410156 106.03271484 C194.46848267 107.10014923 194.48286377 108.16758362 194.49768066 109.2673645 C194.44638191 118.65841819 192.10824875 126.62038622 185.546875 133.5390625 C176.33887936 142.23550282 164.00224105 142.44746407 151.96069336 142.40405273 C150.5974726 142.40977108 149.23425661 142.41674093 147.87104797 142.42485046 C144.20577721 142.44263149 140.54074778 142.44164277 136.87544703 142.43590808 C133.80151355 142.43279551 130.72762506 142.43893117 127.65369803 142.44494683 C120.39726697 142.45893974 113.14095379 142.45747344 105.88452148 142.44604492 C98.42602557 142.43455698 90.96788898 142.4486625 83.50944036 142.4754414 C77.07678241 142.497663 70.64423672 142.50422164 64.21154314 142.49836498 C60.3821666 142.49501103 56.55302052 142.49730611 52.72367668 142.51461601 C49.12255664 142.5301879 45.52196592 142.52601785 41.92086601 142.50731087 C39.98720323 142.50192429 38.05351608 142.51605898 36.11990356 142.53100586 C24.92236027 142.43734892 16.04139522 140.00468665 7.875 132.14453125 C5.14926225 129.0269687 3.36507165 125.89717347 2 122 C1.65913361 121.03472885 1.31826721 120.0694577 0.96707153 119.07493591 C-0.46327487 113.99066497 -0.2629544 108.89234508 -0.22705078 103.64868164 C-0.22734283 102.52599884 -0.22763489 101.40331604 -0.22793579 100.24661255 C-0.22654706 96.55104737 -0.21100709 92.85568603 -0.1953125 89.16015625 C-0.19158076 86.5918336 -0.18873455 84.02350952 -0.18673706 81.45518494 C-0.17989177 75.39570771 -0.1641431 69.33631408 -0.14403808 63.27686828 C-0.12163726 56.37479191 -0.11067516 49.47271197 -0.10064721 42.57060826 C-0.07977556 28.38036015 -0.04311618 14.19019754 0 0 Z " fill="#231F20" transform="translate(558,50)"/>
<path d="M0 0 C49.17 0 98.34 0 149 0 C149 11.88 149 23.76 149 36 C99.83 36 50.66 36 0 36 C0 24.12 0 12.24 0 0 Z " fill="#F8F8F8" transform="translate(1158,132)"/>
<path d="M0 0 C19.27953334 -0.02254592 38.55905605 -0.04097853 57.83859921 -0.05181217 C66.78978382 -0.05697541 75.74095968 -0.06401863 84.69213867 -0.07543945 C92.49110388 -0.08538545 100.29006276 -0.09185322 108.08903414 -0.09408849 C112.22112186 -0.09539575 116.35319144 -0.09848251 120.48527336 -0.10573006 C124.37001526 -0.11248894 128.25473146 -0.11461723 132.13947868 -0.11310768 C133.56939839 -0.11338407 134.99931891 -0.11538998 136.42923355 -0.11920547 C138.37318051 -0.12414059 140.31714109 -0.12239805 142.26109314 -0.12025452 C143.35157424 -0.12117631 144.44205534 -0.1220981 145.56558132 -0.12304783 C148 0 148 0 149 1 C149 12.55 149 24.1 149 36 C99.83 36 50.66 36 0 36 C0 24.12 0 12.24 0 0 Z " fill="#F8F8F8" transform="translate(871,132)"/>
<path d="M0 0 C49.17 0 98.34 0 149 0 C149 11.55 149 23.1 149 35 C99.83 35 50.66 35 0 35 C0 23.45 0 11.9 0 0 Z " fill="#F8F8F8" transform="translate(1158,74)"/>
<path d="M0 0 C49.17 0 98.34 0 149 0 C149 11.55 149 23.1 149 35 C99.83 35 50.66 35 0 35 C0 23.45 0 11.9 0 0 Z " fill="#F8F8F8" transform="translate(871,74)"/>
<path d="M0 0 C4.13559723 4.13559723 5.38590987 7.80042782 5.625 13.5625 C5.43445159 19.66004917 3.91952935 24.17919802 -0.203125 28.71875 C-4.96416815 33.02874696 -10.1893735 34.7679676 -16.59375 34.55859375 C-21.81906323 33.68464171 -26.6832415 31.45324943 -30.3359375 27.56640625 C-33.99747992 21.52875652 -33.86989807 13.96589509 -32.8125 7.1875 C-30.44165979 2.14755258 -26.34504615 -2.42471401 -21.0625 -4.5 C-12.93564563 -5.62872977 -6.87836996 -4.43272731 0 0 Z " fill="#EEEDED" transform="translate(1394.8125,54.8125)"/>
<path d="M0 0 C42.98094694 -0.08060607 42.98094694 -0.08060607 61.0078125 -0.09765625 C73.44923554 -0.10951818 85.89063147 -0.12345442 98.33203125 -0.15087891 C107.39349232 -0.17084346 116.45493136 -0.18372372 125.51641381 -0.18817699 C130.31223854 -0.19077917 135.10800028 -0.19687457 139.90380478 -0.21146011 C144.423051 -0.22509246 148.94220863 -0.22921125 153.46147346 -0.22621536 C155.11498688 -0.226763 156.76850342 -0.23070663 158.42199898 -0.23841095 C179.50234816 -0.33176789 179.50234816 -0.33176789 186 4 C185.67 4.66 185.34 5.32 185 6 C180.05 5.34 175.1 4.68 170 4 C170 3.67 170 3.34 170 3 C165.99974227 2.04978922 162.2794076 1.87660336 158.1726532 1.87974548 C157.49867849 1.87889106 156.82470378 1.87803663 156.13030559 1.87715632 C153.87940492 1.87551354 151.62857932 1.88100315 149.37768555 1.88647461 C147.76120506 1.88675677 146.14472444 1.88659819 144.52824402 1.8860321 C140.14437115 1.88574524 135.76052566 1.89162404 131.37665915 1.89860606 C126.79357273 1.90485808 122.21048567 1.90544486 117.62739563 1.90663147 C108.95064411 1.90973933 100.27390518 1.91794538 91.59715921 1.92798096 C79.87086809 1.9412492 68.14457352 1.94664641 56.41827679 1.95248318 C37.94550842 1.96188562 19.47276664 1.9818082 1 2 C1 48.2 1 94.4 1 142 C0.67 142 0.34 142 0 142 C0 95.14 0 48.28 0 0 Z " fill="#403F3F" transform="translate(1131,50)"/>
<path d="M0 0 C4.13559723 4.13559723 5.38590987 7.80042782 5.625 13.5625 C5.43445159 19.66004917 3.91952935 24.17919802 -0.203125 28.71875 C-4.96416815 33.02874696 -10.1893735 34.7679676 -16.59375 34.55859375 C-21.81906323 33.68464171 -26.6832415 31.45324943 -30.3359375 27.56640625 C-33.99747992 21.52875652 -33.86989807 13.96589509 -32.8125 7.1875 C-30.44165979 2.14755258 -26.34504615 -2.42471401 -21.0625 -4.5 C-12.93564563 -5.62872977 -6.87836996 -4.43272731 0 0 Z M-27.8125 4.1875 C-30.8425202 10.34921893 -30.74071946 17.05475931 -28.8125 23.5625 C-25.67799904 27.67653251 -21.87791667 30.64090916 -16.6875 31.56640625 C-11.10365903 31.7250381 -7.35639728 30.21676485 -2.8125 27.1875 C-2.8125 26.5275 -2.8125 25.8675 -2.8125 25.1875 C-2.1525 25.1875 -1.4925 25.1875 -0.8125 25.1875 C2.38889939 19.29692513 2.75486785 14.72720725 1.1875 8.1875 C-0.88524413 3.88256988 -3.37112224 1.08328527 -7.69140625 -1.109375 C-15.5939064 -3.72898831 -22.72673351 -2.64788878 -27.8125 4.1875 Z " fill="#2D2D2D" transform="translate(1394.8125,54.8125)"/>
<path d="M0 0 C11.625 -0.25 11.625 -0.25 15 2 C15.3984375 4.05859375 15.3984375 4.05859375 15.375 6.4375 C15.38273437 7.21996094 15.39046875 8.00242187 15.3984375 8.80859375 C14.91948725 11.4428201 14.03446037 12.32614504 12 14 C12.66 15.11375 13.32 16.2275 14 17.375 C16 20.75 16 20.75 16 23 C13.65368952 22.24582878 12.29110535 21.51003582 11.0546875 19.34375 C10.74789063 18.7146875 10.44109375 18.085625 10.125 17.4375 C9.21015174 15.55305687 9.21015174 15.55305687 8 14 C4.87311572 12.94824448 4.87311572 12.94824448 2 13 C2 15.97 2 18.94 2 22 C1.34 22 0.68 22 0 22 C0 14.74 0 7.48 0 0 Z " fill="#464646" transform="translate(1374,58)"/>
<path d="M0 0 C1.65 0 3.3 0 5 0 C4.01 0.66 3.02 1.32 2 2 C3.4904911 1.99666908 3.4904911 1.99666908 5.01109314 1.99327087 C17.65321942 1.96593598 30.29534886 1.94821112 42.9375 1.9375 C43.94075317 1.93664398 44.94400635 1.93578796 45.97766113 1.93490601 C76.99785637 1.91150702 107.99113761 2.0822314 139 3 C139.33 2.01 139.66 1.02 140 0 C142.375 -0.1875 142.375 -0.1875 145 0 C145.99 1.485 145.99 1.485 147 3 C142.94073916 3.76068608 139.10467032 4.12695939 134.97698975 4.13371277 C133.79365051 4.13797775 132.61031128 4.14224274 131.39111328 4.14663696 C129.46452881 4.14595718 129.46452881 4.14595718 127.49902344 4.14526367 C126.12208973 4.14825828 124.74515687 4.15166151 123.3682251 4.15544128 C119.64128773 4.16424938 115.91437334 4.1666179 112.18742657 4.16725707 C109.85932617 4.16796876 107.53123158 4.17010523 105.20313263 4.17275429 C97.08300913 4.1819933 88.96290202 4.18609051 80.84277344 4.18530273 C73.26844997 4.18470057 65.69419739 4.19528317 58.11989188 4.2110464 C51.61618074 4.2241004 45.11249286 4.22948762 38.6087687 4.22884732 C34.72431964 4.22859194 30.83993377 4.23146616 26.95549774 4.24202538 C23.30784425 4.25167174 19.66031491 4.25180957 16.01265717 4.24450874 C14.03068952 4.24295695 12.04872198 4.25133156 10.06677246 4.25994873 C8.89471252 4.25575424 7.72265259 4.25155975 6.51507568 4.24723816 C5.49230404 4.24778293 4.46953239 4.24832769 3.41576767 4.24888897 C1 4 1 4 -1 2 C-0.67 1.34 -0.34 0.68 0 0 Z " fill="#2F2B2C" transform="translate(583,188)"/>
<path d="M0 0 C0.33 0 0.66 0 1 0 C1 5.61 1 11.22 1 17 C1.66 17 2.32 17 3 17 C3 14.03 3 11.06 3 8 C5.625 7.4375 5.625 7.4375 9 8 C10.85123946 10.19019879 12.26126413 12.45684887 13.703125 14.93359375 C14.83442622 17.13381981 14.83442622 17.13381981 17 18 C16.67 17.01 16.34 16.02 16 15 C16.66 15 17.32 15 18 15 C18.33 16.32 18.66 17.64 19 19 C13.85370156 23.22731658 9.50173851 23.41280879 3 23 C1.2722168 21.77612305 1.2722168 21.77612305 0 20 C-0.34057617 17.82348633 -0.34057617 17.82348633 -0.29296875 15.33203125 C-0.28330078 14.43935547 -0.27363281 13.54667969 -0.26367188 12.62695312 C-0.23853516 11.69818359 -0.21339844 10.76941406 -0.1875 9.8125 C-0.17396484 8.87212891 -0.16042969 7.93175781 -0.14648438 6.96289062 C-0.11113096 4.64134962 -0.06178674 2.32096347 0 0 Z " fill="#E9E9E9" transform="translate(1373,63)"/>
<path d="M0 0 C0.99 0 1.98 0 3 0 C3 11.22 3 22.44 3 34 C2.34 34 1.68 34 1 34 C-0.125 30.25 -0.125 30.25 1 28 C0.34 28 -0.32 28 -1 28 C-1.02904864 24.08334892 -1.04681517 20.1667256 -1.0625 16.25 C-1.07087891 15.13882813 -1.07925781 14.02765625 -1.08789062 12.8828125 C-1.09111328 11.81289062 -1.09433594 10.74296875 -1.09765625 9.640625 C-1.10289307 8.65610352 -1.10812988 7.67158203 -1.11352539 6.65722656 C-1.01159103 4.27130486 -0.68303357 2.27835419 0 0 Z " fill="#2A2627" transform="translate(1155,132)"/>
<path d="M0 0 C0.33 0 0.66 0 1 0 C1 30.03 1 60.06 1 91 C1.66 91 2.32 91 3 91 C3 91.99 3 92.98 3 94 C1.35 94 -0.3 94 -2 94 C-2 92.35 -2 90.7 -2 89 C-1.34 89 -0.68 89 0 89 C0 59.63 0 30.26 0 0 Z " fill="#F7F5F6" transform="translate(722,72)"/>
<path d="M0 0 C7.79212637 -0.0509395 15.58420938 -0.08583388 23.37646484 -0.10986328 C26.02426763 -0.11988671 28.67205944 -0.13350899 31.31982422 -0.15087891 C35.13772296 -0.17528819 38.95547463 -0.18652004 42.7734375 -0.1953125 C43.94675629 -0.20563507 45.12007507 -0.21595764 46.32894897 -0.22659302 C62.6568083 -0.22879447 62.6568083 -0.22879447 69 4 C68.67 4.66 68.34 5.32 68 6 C60.575 5.01 60.575 5.01 53 4 C53 3.67 53 3.34 53 3 C49.6313811 2.25035098 46.47443897 1.85836695 43.02612305 1.79467773 C42.06550461 1.77473251 41.10488617 1.75478729 40.11515808 1.73423767 C38.57895561 1.70916893 38.57895561 1.70916893 37.01171875 1.68359375 C35.95338333 1.66281265 34.89504791 1.64203156 33.80464172 1.62062073 C30.43232559 1.55536897 27.05993326 1.49635363 23.6875 1.4375 C21.39777866 1.3942916 19.10806495 1.35067657 16.81835938 1.30664062 C11.21231955 1.19971259 5.60620434 1.09790137 0 1 C0 0.67 0 0.34 0 0 Z " fill="#2C2829" transform="translate(1248,50)"/>
<path d="M0 0 C5.52879581 -0.37696335 5.52879581 -0.37696335 7.875 1.5 C11.05501489 3.74471639 14.27937717 3.45210755 18 3 C20.73774618 2.07254351 20.73774618 2.07254351 23 1 C23.99 1 24.98 1 26 1 C26 1.99 26 2.98 26 4 C20.70981506 6.26722212 15.82567872 8.17775454 10 7 C6.52536114 5.56633812 3.25841465 3.86958217 0 2 C0 1.34 0 0.68 0 0 Z " fill="#3F3F3F" transform="translate(1366,82)"/>
<path d="M0 0 C0.99 0.495 0.99 0.495 2 1 C2.625 3.5625 2.625 3.5625 3 6 C5.31 6.33 7.62 6.66 10 7 C10 7.99 10 8.98 10 10 C10.66 10 11.32 10 12 10 C16 16.75 16 16.75 16 19 C13.65368952 18.24582878 12.29110535 17.51003582 11.0546875 15.34375 C10.74789063 14.7146875 10.44109375 14.085625 10.125 13.4375 C9.21015174 11.55305687 9.21015174 11.55305687 8 10 C4.87311572 8.94824448 4.87311572 8.94824448 2 9 C2 11.97 2 14.94 2 18 C1.34 18 0.68 18 0 18 C0 12.06 0 6.12 0 0 Z " fill="#242424" transform="translate(1374,62)"/>
<path d="M0 0 C8.58 0 17.16 0 26 0 C26 0.99 26 1.98 26 3 C17.42 3 8.84 3 0 3 C0 2.01 0 1.02 0 0 Z " fill="#272425" transform="translate(726,50)"/>
<path d="M0 0 C0 3 0 3 -1.625 5.8125 C-3.33903735 8.94232642 -3.33903735 8.94232642 -2.3125 12.25 C-1.15606284 15.06632293 -1.15606284 15.06632293 1 17 C0.67 17.99 0.34 18.98 0 20 C-1.83913695 18.5489926 -3.6711753 17.08898341 -5.5 15.625 C-6.5209375 14.81289062 -7.541875 14.00078125 -8.59375 13.1640625 C-9.78484375 12.09285156 -9.78484375 12.09285156 -11 11 C-11 10.34 -11 9.68 -11 9 C-9.40591302 7.58528397 -7.74893135 6.24075901 -6.0625 4.9375 C-5.14597656 4.22464844 -4.22945312 3.51179688 -3.28515625 2.77734375 C-2.15400391 1.89755859 -2.15400391 1.89755859 -1 1 C-0.67 0.67 -0.34 0.34 0 0 Z " fill="#DAD9DA" transform="translate(1035,110)"/>
<path d="M0 0 C2 0 2 0 3.27807617 1.27539062 C7.85830923 7.76538796 7.58839945 13.77481549 7.3125 21.5 C7.28994141 22.70398438 7.26738281 23.90796875 7.24414062 25.1484375 C7.18557259 28.10026661 7.10360022 31.04946573 7 34 C6.67 34 6.34 34 6 34 C5.67 32.02 5.34 30.04 5 28 C4.67 28 4.34 28 4 28 C4 22.06 4 16.12 4 10 C3.34 9.67 2.68 9.34 2 9 C0.9986012 5.99580359 0.48578543 3.12290635 0 0 Z " fill="#413E3F" transform="translate(1040,134)"/>
<path d="M0 0 C4.01759324 4.26108374 4.01759324 4.26108374 3.9375 7.625 C2.96499754 10.0886729 2.02482766 11.32731628 0 13 C-0.33 12.01 -0.66 11.02 -1 10 C-1.639375 9.71125 -2.27875 9.4225 -2.9375 9.125 C-5.71680854 7.60901352 -6.07115981 5.94132727 -7 3 C-5.0625 2.4375 -5.0625 2.4375 -3 2 C-2.67 2.33 -2.34 2.66 -2 3 C-1.34 2.01 -0.68 1.02 0 0 Z " fill="#FAF8F9" transform="translate(1392,68)"/>
<path d="M0 0 C2.25 -0.375 2.25 -0.375 5 0 C9 4.97297297 9 4.97297297 9 8 C6.66785852 9.20628008 4.50357861 10.1654738 2 11 C0 9 0 9 -0.1953125 6.8359375 C-0.17210937 6.02382812 -0.14890625 5.21171875 -0.125 4.375 C-0.10695313 3.55773437 -0.08890625 2.74046875 -0.0703125 1.8984375 C-0.04710937 1.27195312 -0.02390625 0.64546875 0 0 Z " fill="#E2E2E2" transform="translate(1377,71)"/>
<path d="M0 0 C1.47906892 -0.02689216 2.95827483 -0.04634621 4.4375 -0.0625 C5.26121094 -0.07410156 6.08492187 -0.08570313 6.93359375 -0.09765625 C9 0 9 0 10 1 C10.04063832 2.66617115 10.042721 4.33388095 10 6 C6.78548731 7.60725635 3.56387464 7.05748185 0 7 C0 4.69 0 2.38 0 0 Z " fill="#E3E3E3" transform="translate(1377,61)"/>
<path d="M0 0 C6.0546875 -0.1953125 6.0546875 -0.1953125 8 0 C10 2 10 2 10.125 4.4375 C10.08375 5.283125 10.0425 6.12875 10 7 C10 7.99 10 8.98 10 10 C7 10 7 10 4.4375 7.8125 C2.16225988 5.18722294 1.02946323 3.27556481 0 0 Z " fill="#F8F8F8" transform="translate(1318,49)"/>
<path d="M0 0 C3.30032149 4.95048224 2.41028668 10.55739589 2.4375 16.375 C2.47037109 17.60734375 2.50324219 18.8396875 2.53710938 20.109375 C2.59006159 28.98609136 2.59006159 28.98609136 0.85595703 31.96582031 C-0.52734375 33.3515625 -0.52734375 33.3515625 -3 35 C-3.66 34.67 -4.32 34.34 -5 34 C-3.125 29.125 -3.125 29.125 -2 28 C-1.76807135 26.48530552 -1.58784762 24.96245438 -1.4375 23.4375 C-1.31181641 22.19806641 -1.31181641 22.19806641 -1.18359375 20.93359375 C-1.12300781 20.29550781 -1.06242187 19.65742187 -1 19 C-0.67 19 -0.34 19 0 19 C0 12.73 0 6.46 0 0 Z " fill="#464445" transform="translate(1045,69)"/>
<path d="M0 0 C1.32 0.66 2.64 1.32 4 2 C4 2.66 4 3.32 4 4 C4.66 3.67 5.32 3.34 6 3 C5.67 2.01 5.34 1.02 5 0 C5.66 0 6.32 0 7 0 C8.90608098 3.21182149 9.22266247 5.53882603 9.125 9.25 C9.10695313 10.14203125 9.08890625 11.0340625 9.0703125 11.953125 C9.04710937 12.62859375 9.02390625 13.3040625 9 14 C8.55011719 13.39285156 8.10023437 12.78570312 7.63671875 12.16015625 C3.33440135 6.48191873 -0.33910555 4.14503381 -7 2 C-7 1.67 -7 1.34 -7 1 C-4.69 1 -2.38 1 0 1 C0 0.67 0 0.34 0 0 Z " fill="#F4F4F4" transform="translate(1391,49)"/>
<path d="M0 0 C0.03738281 0.92941406 0.07476563 1.85882813 0.11328125 2.81640625 C0.6129465 12.29239004 0.6129465 12.29239004 4 21 C3.34 21.33 2.68 21.66 2 22 C-1.53753494 18.78405915 -2.9210173 16.3964141 -3.1953125 11.546875 C-3.17210937 10.29390625 -3.14890625 9.0409375 -3.125 7.75 C-3.10695313 6.48671875 -3.08890625 5.2234375 -3.0703125 3.921875 C-3.04710937 2.95765625 -3.02390625 1.9934375 -3 1 C-1 0 -1 0 0 0 Z " fill="#393939" transform="translate(1365,61)"/>
<path d="M0 0 C0.66 0 1.32 0 2 0 C4.05127844 3.07691766 4.27260872 3.93644999 4.4140625 7.44921875 C4.45273438 8.29677734 4.49140625 9.14433594 4.53125 10.01757812 C4.5621875 10.89865234 4.593125 11.77972656 4.625 12.6875 C4.66367188 13.58017578 4.70234375 14.47285156 4.7421875 15.39257812 C4.83640218 17.5948462 4.92201588 19.79710722 5 22 C3.68 21.67 2.36 21.34 1 21 C0.67 14.07 0.34 7.14 0 0 Z " fill="#FBFBFB" transform="translate(1369,61)"/>
<path d="M0 0 C0.33 0 0.66 0 1 0 C1 4.62 1 9.24 1 14 C0.34 14 -0.32 14 -1 14 C-1 12.68 -1 11.36 -1 10 C-1.20625 10.639375 -1.4125 11.27875 -1.625 11.9375 C-3 14 -3 14 -6 14.875 C-6.99 14.91625 -7.98 14.9575 -9 15 C-9.66 14.34 -10.32 13.68 -11 13 C-10.071875 12.4225 -9.14375 11.845 -8.1875 11.25 C-3.66483076 8.0575276 -1.86278582 5.1584838 0 0 Z " fill="#EEEEEE" transform="translate(1399,74)"/>
<path d="M0 0 C0.33 0 0.66 0 1 0 C1 5.61 1 11.22 1 17 C1.66 17 2.32 17 3 17 C3 14.03 3 11.06 3 8 C3.33 8 3.66 8 4 8 C4.02578125 8.61488281 4.0515625 9.22976562 4.078125 9.86328125 C4.2814648 14.99254591 4.2814648 14.99254591 7.0625 19.0625 C7.701875 19.371875 8.34125 19.68125 9 20 C8.67 20.66 8.34 21.32 8 22 C5.69 22 3.38 22 1 22 C0.05862745 19.17588235 -0.11725382 17.47081968 -0.09765625 14.55078125 C-0.09443359 13.70322266 -0.09121094 12.85566406 -0.08789062 11.98242188 C-0.07951172 11.10134766 -0.07113281 10.22027344 -0.0625 9.3125 C-0.05798828 8.41982422 -0.05347656 7.52714844 -0.04882812 6.60742188 C-0.03704983 4.40488013 -0.02060164 2.20247401 0 0 Z " fill="#CECECE" transform="translate(1373,63)"/>
<path d="M0 0 C1.32 0 2.64 0 4 0 C4 5.28 4 10.56 4 16 C3.34 16 2.68 16 2 16 C0.24836544 12.22777911 -0.22490027 9.333361 -0.125 5.1875 C-0.10695313 4.21167969 -0.08890625 3.23585938 -0.0703125 2.23046875 C-0.04710937 1.49441406 -0.02390625 0.75835937 0 0 Z " fill="#F6F6F6" transform="translate(1365,64)"/>
<path d="M0 0 C0.33 0.66 0.66 1.32 1 2 C2.32 1.67 3.64 1.34 5 1 C6 4 6 4 5.07421875 6.12109375 C4.38779297 7.26771484 4.38779297 7.26771484 3.6875 8.4375 C2.02366673 11.25505147 0.42886817 14.05505574 -1 17 C-1.02699725 14.72923158 -1.04639453 12.45837179 -1.0625 10.1875 C-1.07990234 8.29064453 -1.07990234 8.29064453 -1.09765625 6.35546875 C-1 3 -1 3 0 0 Z " fill="#F4F3F3" transform="translate(1,57)"/>
<path d="M0 0 C2.83801938 4.25702907 2.52076758 8.00218574 2 13 C0.66362375 16.401685 -0.43478846 18.43478846 -3 21 C-3.99 20.67 -4.98 20.34 -6 20 C-5.505 18.515 -5.505 18.515 -5 17 C-4.34 17 -3.68 17 -3 17 C-1.1582605 11.35199888 -0.45224761 5.91492272 0 0 Z " fill="#2A2728" transform="translate(1397,63)"/>
<path d="M0 0 C1.65 0 3.3 0 5 0 C4.01 6.27 3.02 12.54 2 19 C1.67 19 1.34 19 1 19 C-0.15316726 12.65758005 -0.09507063 6.43311296 0 0 Z " fill="#F8F6F7" transform="translate(28,76)"/>
<path d="M0 0 C1.89646998 0.11493757 3.79218332 0.24239642 5.6875 0.375 C6.74324219 0.44460937 7.79898437 0.51421875 8.88671875 0.5859375 C11.90677269 0.98760089 14.24078054 1.74069019 17 3 C16.67 3.99 16.34 4.98 16 6 C8.575 5.01 8.575 5.01 1 4 C0.67 2.68 0.34 1.36 0 0 Z " fill="#3D3A3B" transform="translate(1300,50)"/>
<path d="M0 0 C0.66 1.32 1.32 2.64 2 4 C1.34 4.66 0.68 5.32 0 6 C0.33 6.66 0.66 7.32 1 8 C-1.8125 8.6875 -1.8125 8.6875 -5 9 C-6.875 7.5625 -6.875 7.5625 -8 6 C-5.33333333 4 -2.66666667 2 0 0 Z " fill="#EDE9EA" transform="translate(1038,183)"/>
<path d="M0 0 C0.66 0.66 1.32 1.32 2 2 C1.67 2.61875 1.34 3.2375 1 3.875 C-0.14193235 5.91018344 -0.14193235 5.91018344 0 8 C-1.32 8 -2.64 8 -4 8 C-4 8.66 -4 9.32 -4 10 C-3.01 10.33 -2.02 10.66 -1 11 C-8.75 12.125 -8.75 12.125 -11 11 C-10.28972656 10.37351562 -9.57945313 9.74703125 -8.84765625 9.1015625 C-7.46900391 7.87566406 -7.46900391 7.87566406 -6.0625 6.625 C-5.14597656 5.81289062 -4.22945312 5.00078125 -3.28515625 4.1640625 C-0.96398605 2.21290653 -0.96398605 2.21290653 0 0 Z " fill="#E2E1E1" transform="translate(1332,100)"/>
<path d="M0 0 C2.4957321 2.4957321 2.94900532 4.64995445 4 8 C4.65411685 9.67163195 5.31653318 11.34015202 6 13 C5.34 13.66 4.68 14.32 4 15 C3.34 14.34 2.68 13.68 2 13 C1.34 13 0.68 13 0 13 C0 8.71 0 4.42 0 0 Z " fill="#F2F2F2" transform="translate(0,168)"/>
<path d="M0 0 C3.22539721 2.93217928 4.88644567 5.37390197 5.1953125 9.796875 C5.17210937 10.77140625 5.14890625 11.7459375 5.125 12.75 C5.10695313 13.73484375 5.08890625 14.7196875 5.0703125 15.734375 C5.03550781 16.85585937 5.03550781 16.85585937 5 18 C3 16 3 16 2.875 12.875 C2.91625 11.92625 2.9575 10.9775 3 10 C2.01 10.495 2.01 10.495 1 11 C0.34 8.69 -0.32 6.38 -1 4 C-0.34 4 0.32 4 1 4 C0.67 2.68 0.34 1.36 0 0 Z " fill="#514F50" transform="translate(1395,56)"/>
<path d="M0 0 C2.31 0 4.62 0 7 0 C7.33 0.66 7.66 1.32 8 2 C7.34 2 6.68 2 6 2 C6 3.32 6 4.64 6 6 C4.35 6.66 2.7 7.32 1 8 C0.67 5.36 0.34 2.72 0 0 Z " fill="#F4F4F4" transform="translate(552,48)"/>
<path d="M0 0 C2.6465335 2.6465335 3.59941997 5.56221264 5 9 C1.09161134 9 -0.11594107 7.49432124 -3 5 C-1.125 1.125 -1.125 1.125 0 0 Z " fill="#E9E8E9" transform="translate(1315,116)"/>
<path d="M0 0 C0 3 0 3 -1.5625 6.0625 C-2.2740625 7.5165625 -2.2740625 7.5165625 -3 9 C-2.67 9.66 -2.34 10.32 -2 11 C-2.33 11.66 -2.66 12.32 -3 13 C-5.13093906 11.93453047 -6.36587557 10.70840281 -8 9 C-6.4169423 4.7257442 -3.49431596 2.73468206 0 0 Z " fill="#EBEBEB" transform="translate(1035,110)"/>
<path d="M0 0 C0.99 0 1.98 0 3 0 C3 0.66 3 1.32 3 2 C4.2065625 2.433125 4.2065625 2.433125 5.4375 2.875 C8 4 8 4 9 6 C8.01 6.99 7.02 7.98 6 9 C5.67 8.01 5.34 7.02 5 6 C4.34 5.690625 3.68 5.38125 3 5.0625 C1 4 1 4 0.25 1.875 C0.1675 1.25625 0.085 0.6375 0 0 Z " fill="#EFEEEE" transform="translate(1386,72)"/>
<path d="M0 0 C5.29441695 -0.50423019 7.81413519 0.81076967 12 4 C11.34 4.66 10.68 5.32 10 6 C6.33773088 5.60761402 3.22219876 3.68433117 0 2 C0 1.34 0 0.68 0 0 Z " fill="#464646" transform="translate(1366,82)"/>
<path d="M0 0 C1.65 0 3.3 0 5 0 C5.25 2.3125 5.25 2.3125 5 5 C3 6.8125 3 6.8125 1 8 C0.01 6.02 -0.98 4.04 -2 2 C-1.34 2 -0.68 2 0 2 C0 1.34 0 0.68 0 0 Z " fill="#E9E9E9" transform="translate(1330,59)"/>
<path d="M0 0 C0.66 0.33 1.32 0.66 2 1 C1.3503125 2.051875 1.3503125 2.051875 0.6875 3.125 C-1.01501086 6.02557406 -2.52448567 8.97870875 -4 12 C-4.99 11.34 -5.98 10.68 -7 10 C-5.6062718 5.56541027 -3.39417765 3.12621626 0 0 Z " fill="#3B3B3B" transform="translate(1370,52)"/>
<path d="M0 0 C2.97 0.495 2.97 0.495 6 1 C5.67 1.66 5.34 2.32 5 3 C4.34 3 3.68 3 3 3 C3 3.66 3 4.32 3 5 C3.66 5.33 4.32 5.66 5 6 C3.02 7.32 1.04 8.64 -1 10 C-0.67 6.7 -0.34 3.4 0 0 Z " fill="#EEEEEE" transform="translate(8,50)"/>
<path d="M0 0 C1.32 0 2.64 0 4 0 C4.33 0.99 4.66 1.98 5 3 C4.34 3 3.68 3 3 3 C2.67 3.66 2.34 4.32 2 5 C2.66 5 3.32 5 4 5 C3.67 6.65 3.34 8.3 3 10 C2.01 9.67 1.02 9.34 0 9 C0 6.03 0 3.06 0 0 Z " fill="#FAFAFA" transform="translate(1377,71)"/>
<path d="M0 0 C1.98 0 3.96 0 6 0 C6.33 2.31 6.66 4.62 7 7 C6.01 7 5.02 7 4 7 C0 2.65714286 0 2.65714286 0 0 Z " fill="#ECEBEB" transform="translate(1325,129)"/>
<path d="M0 0 C-2.77042109 2.77042109 -4.76533805 2.39796106 -8.625 2.625 C-9.81351563 2.69976562 -11.00203125 2.77453125 -12.2265625 2.8515625 C-13.59941406 2.92503906 -13.59941406 2.92503906 -15 3 C-14 1 -14 1 -11.4375 -0.1875 C-7.1803944 -1.19372496 -4.28929715 -0.73953399 0 0 Z " fill="#454142" transform="translate(1314,189)"/>
<path d="M0 0 C0.598125 0.309375 1.19625 0.61875 1.8125 0.9375 C4.08956772 2.10209704 4.08956772 2.10209704 7 3 C7 4.65 7 6.3 7 8 C5.68 8 4.36 8 3 8 C1.92474806 5.34771188 0.90543849 2.71631546 0 0 Z " fill="#EEECED" transform="translate(1033,123)"/>
<path d="M0 0 C0.33 0.66 0.66 1.32 1 2 C1.66 2 2.32 2 3 2 C1.64978174 6.41889613 -0.26115668 8.34345343 -4 11 C-4.33 10.01 -4.66 9.02 -5 8 C-4.01 8 -3.02 8 -2 8 C-1.34 5.36 -0.68 2.72 0 0 Z " fill="#282727" transform="translate(1330,96)"/>
<path d="M0 0 C-0.11429397 1.77155654 -0.24183037 3.54226229 -0.375 5.3125 C-0.47941406 6.79169922 -0.47941406 6.79169922 -0.5859375 8.30078125 C-1 11 -1 11 -3 14 C-3 9.71 -3 5.42 -3 1 C-1 0 -1 0 0 0 Z " fill="#232323" transform="translate(1365,61)"/>
<path d="M0 0 C1.3921875 0.3403125 1.3921875 0.3403125 2.8125 0.6875 C2.8125 1.3475 2.8125 2.0075 2.8125 2.6875 C0.5625 3.8125 0.5625 3.8125 -2.1875 4.6875 C-4.5 3.8125 -4.5 3.8125 -6.1875 2.6875 C-4.14987265 -0.14253799 -3.59070275 -0.35202968 0 0 Z " fill="#2A2A2A" transform="translate(13.1875,57.3125)"/>
<path d="M0 0 C1.65 0 3.3 0 5 0 C5 0.66 5 1.32 5 2 C4.01 2 3.02 2 2 2 C2.99 2.66 3.98 3.32 5 4 C4.67 4.99 4.34 5.98 4 7 C2.68 7 1.36 7 0 7 C0 4.69 0 2.38 0 0 Z " fill="#F9F9F9" transform="translate(1377,61)"/>
<path d="M0 0 C2.35981813 0.93578995 4.69631264 1.93347808 7 3 C3.5647952 5.29013653 2.014669 5.17842973 -2 5 C-2 3.68 -2 2.36 -2 1 C-1.34 0.67 -0.68 0.34 0 0 Z " fill="#EAEAEA" transform="translate(571,186)"/>
<path d="M0 0 C0.97791242 2.64036353 1.03638105 3.87266632 0.25 6.625 C-1 9 -1 9 -4 11 C-4.66 10.34 -5.32 9.68 -6 9 C-5.071875 7.88625 -5.071875 7.88625 -4.125 6.75 C-2.39562719 4.51198812 -1.13893339 2.56260013 0 0 Z " fill="#DFDFDF" transform="translate(1045,173)"/>
<path d="M0 0 C3 1 3 1 5 2 C5 2.66 5 3.32 5 4 C6.32 4.66 7.64 5.32 9 6 C8.01 6.66 7.02 7.32 6 8 C1.3125 4.38671875 1.3125 4.38671875 0 3 C0 2.01 0 1.02 0 0 Z " fill="#E9E7E8" transform="translate(1320,52)"/>
<path d="M0 0 C0 0.66 0 1.32 0 2 C0.99 2.33 1.98 2.66 3 3 C2.67 4.32 2.34 5.64 2 7 C-1.465 5.02 -1.465 5.02 -5 3 C-2.25 0 -2.25 0 0 0 Z " fill="#EAE8E9" transform="translate(1037,52)"/>
<path d="M0 0 C1.125 1.75 1.125 1.75 2 4 C1.125 6.25 1.125 6.25 0 8 C-1.65 6.02 -3.3 4.04 -5 2 C-4.01 1.67 -3.02 1.34 -2 1 C-1.34 0.67 -0.68 0.34 0 0 Z " fill="#373737" transform="translate(9,176)"/>
<path d="M0 0 C1.32 0.66 2.64 1.32 4 2 C3.34 3.32 2.68 4.64 2 6 C1.2575 5.54625 0.515 5.0925 -0.25 4.625 C-2.46930578 3.31359204 -4.67967822 2.11719197 -7 1 C-4.69 1 -2.38 1 0 1 C0 0.67 0 0.34 0 0 Z " fill="#D7D7D7" transform="translate(1391,49)"/>
<path d="M0 0 C1.5 1.375 1.5 1.375 3 3 C3 3.66 3 4.32 3 5 C3.66 5.33 4.32 5.66 5 6 C3.625 7.5 3.625 7.5 2 9 C1.34 9 0.68 9 0 9 C0.33 7.02 0.66 5.04 1 3 C0.01 3.33 -0.98 3.66 -2 4 C-1.34 2.68 -0.68 1.36 0 0 Z " fill="#2D292A" transform="translate(1034,177)"/>
<path d="M0 0 C1.32 0.33 2.64 0.66 4 1 C3.67 6.94 3.34 12.88 3 19 C2.67 19 2.34 19 2 19 C2 13.72 2 8.44 2 3 C1.34 3 0.68 3 0 3 C0 2.01 0 1.02 0 0 Z " fill="#1A1818" transform="translate(1329,141)"/>
<path d="M0 0 C0.33 0 0.66 0 1 0 C1 2.97 1 5.94 1 9 C1.66 9 2.32 9 3 9 C2.34 10.32 1.68 11.64 1 13 C0.67 13 0.34 13 0 13 C0 8.71 0 4.42 0 0 Z M-2 13 C-1.34 13 -0.68 13 0 13 C-0.33 13.99 -0.66 14.98 -1 16 C-1.33 15.01 -1.66 14.02 -2 13 Z " fill="#191516" transform="translate(867,96)"/>
<path d="M0 0 C0.66 0 1.32 0 2 0 C2.33 1.32 2.66 2.64 3 4 C1.68 4.99 0.36 5.98 -1 7 C-2.32 6.34 -3.64 5.68 -5 5 C-4.34 4.67 -3.68 4.34 -3 4 C-2.67 3.01 -2.34 2.02 -2 1 C-1.01 1.66 -0.02 2.32 1 3 C0.67 2.01 0.34 1.02 0 0 Z " fill="#D7D7D7" transform="translate(1389,78)"/>
<path d="M0 0 C0.33 0 0.66 0 1 0 C1 3.3 1 6.6 1 10 C-0.65 9.67 -2.3 9.34 -4 9 C-2.68 6.03 -1.36 3.06 0 0 Z " fill="#E1E0E0" transform="translate(1399,74)"/>
<path d="M0 0 C1.32 0.66 2.64 1.32 4 2 C3.67 4.64 3.34 7.28 3 10 C2.67 10 2.34 10 2 10 C2 8.35 2 6.7 2 5 C0.68 5.33 -0.64 5.66 -2 6 C-1.34 4.02 -0.68 2.04 0 0 Z " fill="#3B3738" transform="translate(3,66)"/>
<path d="M0 0 C0.99 0 1.98 0 3 0 C3 1.32 3 2.64 3 4 C1.35 4.33 -0.3 4.66 -2 5 C-2 4.34 -2 3.68 -2 3 C-2.99 2.67 -3.98 2.34 -5 2 C-3.35 2 -1.7 2 0 2 C0 1.34 0 0.68 0 0 Z " fill="#2F2B2C" transform="translate(1023,186)"/>
<path d="M0 0 C0.99 0.33 1.98 0.66 3 1 C2.67 1.66 2.34 2.32 2 3 C2.99 3.33 3.98 3.66 5 4 C4.67 5.32 4.34 6.64 4 8 C3.67 7.01 3.34 6.02 3 5 C1.68 5 0.36 5 -1 5 C-1.33 4.01 -1.66 3.02 -2 2 C-1.34 2 -0.68 2 0 2 C0 1.34 0 0.68 0 0 Z " fill="#181818" transform="translate(11,179)"/>
<path d="M0 0 C0.66 0.33 1.32 0.66 2 1 C2 3.31 2 5.62 2 8 C-0.46800047 6.84826645 -2.04783565 5.95216435 -4 4 C-2.68 2.68 -1.36 1.36 0 0 Z " fill="#C9C9C9" transform="translate(1372,54)"/>
<path d="M0 0 C2 0 2 0 3.6875 1.625 C5.43013159 4.77833336 4.8539524 6.58419039 4 10 C2 9 2 9 1 6 C0.64763503 4.00326516 0.31165441 2.00349261 0 0 Z " fill="#353434" transform="translate(1040,134)"/>
<path d="M0 0 C4.42857143 5.14285714 4.42857143 5.14285714 5 9 C2.50584728 8.00233891 1.21259665 7.31383315 -0.3125 5.0625 C-1 3 -1 3 0 0 Z " fill="#404040" transform="translate(1385,72)"/>
<path d="M0 0 C1.9375 0.6875 1.9375 0.6875 4 2 C4.75 4.625 4.75 4.625 5 7 C2.11562221 5.70700306 0.12780579 4.34058637 -2 2 C-1.34 2 -0.68 2 0 2 C0 1.34 0 0.68 0 0 Z " fill="#343434" transform="translate(1391,53)"/>
<path d="M0 0 C1.32 0 2.64 0 4 0 C4.66 0.66 5.32 1.32 6 2 C8.58354218 2.16687448 8.58354218 2.16687448 11 2 C10.01 2.33 9.02 2.66 8 3 C8 3.66 8 4.32 8 5 C4.62496331 3.8141763 2.35277269 2.72426311 0 0 Z " fill="#484747" transform="translate(10,184)"/>
<path d="M0 0 C0.66 0.33 1.32 0.66 2 1 C1.75 2.875 1.75 2.875 1 5 C-1.58152302 6.72101535 -2.84918025 7 -6 7 C-4.02 4.69 -2.04 2.38 0 0 Z " fill="#DAD8D9" transform="translate(1330,177)"/>
<path d="M0 0 C2.88437779 1.29299694 4.87219421 2.65941363 7 5 C6.01 5.33 5.02 5.66 4 6 C3.34 5.67 2.68 5.34 2 5 C2 4.34 2 3.68 2 3 C1.34 3 0.68 3 0 3 C0 2.01 0 1.02 0 0 Z " fill="#2F2B2C" transform="translate(1033,129)"/>
<path d="M0 0 C3.37503669 1.1858237 5.64722731 2.27573689 8 5 C6.68 5.33 5.36 5.66 4 6 C2.68 4.02 1.36 2.04 0 0 Z " fill="#2D292A" transform="translate(1030,54)"/>
<path d="M0 0 C2 2 2 2 2 5 C2.66 5.33 3.32 5.66 4 6 C3.34 6 2.68 6 2 6 C1.67 6.66 1.34 7.32 1 8 C1 7.34 1 6.68 1 6 C0.34 6 -0.32 6 -1 6 C-0.67 4.02 -0.34 2.04 0 0 Z " fill="#191617" transform="translate(5,171)"/>
<path d="M0 0 C0.99 0.33 1.98 0.66 3 1 C3.625 3.375 3.625 3.375 4 6 C3.34 6.66 2.68 7.32 2 8 C0.93224776 6.03533587 -0.06553465 4.03144641 -1 2 C-0.67 1.34 -0.34 0.68 0 0 Z " fill="#EAE9EA" transform="translate(1042,59)"/>
<path d="M0 0 C1.98 0 3.96 0 6 0 C5.34 0.66 4.68 1.32 4 2 C3.30251417 3.31747324 2.63040043 4.64914193 2 6 C1.34 6 0.68 6 0 6 C0 4.02 0 2.04 0 0 Z " fill="#181415" transform="translate(1154,130)"/>
<path d="M0 0 C0.33 0 0.66 0 1 0 C1.33 4.62 1.66 9.24 2 14 C1.01 13.67 0.02 13.34 -1 13 C-0.67 8.71 -0.34 4.42 0 0 Z " fill="#BCBCBC" transform="translate(1361,64)"/>
<path d="M0 0 C2.475 0.99 2.475 0.99 5 2 C5 2.99 5 3.98 5 5 C3.35 4.67 1.7 4.34 0 4 C0 2.68 0 1.36 0 0 Z " fill="#F0F0F0" transform="translate(11,186)"/>
<path d="M0 0 C1.04449911 3.13349732 0.93423645 3.98968256 0 7 C-1.65 7 -3.3 7 -5 7 C-5 6.34 -5 5.68 -5 5 C-3.68 5 -2.36 5 -1 5 C-1 4.34 -1 3.68 -1 3 C-1.66 2.67 -2.32 2.34 -3 2 C-2.01 2 -1.02 2 0 2 C0 1.34 0 0.68 0 0 Z " fill="#2A2A2A" transform="translate(745,175)"/>
<path d="M0 0 C2.5654594 2.5654594 2.54046087 4.47686668 3 8 C2.01 8.33 1.02 8.66 0 9 C0 6.03 0 3.06 0 0 Z " fill="#EDEAEA" transform="translate(0,168)"/>
<path d="M0 0 C1.65 1.65 3.3 3.3 5 5 C4.01 5.495 4.01 5.495 3 6 C0.875 5.0625 0.875 5.0625 -1 4 C-0.67 2.68 -0.34 1.36 0 0 Z " fill="#2E2629" transform="translate(1324,58)"/>
<path d="M0 0 C1.32 0.66 2.64 1.32 4 2 C3.67 2.66 3.34 3.32 3 4 C1.35 4 -0.3 4 -2 4 C-2.33 3.34 -2.66 2.68 -3 2 C-2.01 1.34 -1.02 0.68 0 0 Z " fill="#E5E5E5" transform="translate(1389,56)"/>
</svg>
