<?xml version="1.0" encoding="UTF-8"?>
<svg version="1.1" xmlns="http://www.w3.org/2000/svg" width="294" height="148">
<path d="M0 0 C97.02 0 194.04 0 294 0 C294 48.84 294 97.68 294 148 C196.98 148 99.96 148 0 148 C0 99.16 0 50.32 0 0 Z " fill="#FDFDFE" transform="translate(0,0)"/>
<path d="M0 0 C7.36541292 4.3621726 13.39800966 10.7252019 16 19 C17.16087508 29.81623028 16.58090745 38.89664622 10 48 C4.17349273 54.9816536 -3.27435093 58.18910142 -12.171875 59.44921875 C-21.15621143 59.93282538 -28.9481094 57.33172747 -35.8359375 51.42578125 C-37 50 -37 50 -37 48 C-30.0238988 45.67463293 -22.14511941 46.97926866 -15 48 C-12.96017833 48.1203112 -10.91776208 48.20029776 -8.875 48.25 C-7.38613281 48.28867188 -7.38613281 48.28867188 -5.8671875 48.328125 C-2.50611772 47.94347941 -0.69825012 47.01312922 2 45 C4.30707661 41.24067412 4.30707661 41.24067412 5 37 C4.236875 37.78375 3.47375 38.5675 2.6875 39.375 C-1.04274611 43.0184962 -2.97379839 44.25463817 -8.10546875 44.1953125 C-9.08837891 44.18886719 -10.07128906 44.18242188 -11.08398438 44.17578125 C-12.10814453 44.15902344 -13.13230469 44.14226563 -14.1875 44.125 C-15.22326172 44.11597656 -16.25902344 44.10695312 -17.32617188 44.09765625 C-19.88434685 44.0740786 -22.44205748 44.0411703 -25 44 C-23.39622922 39.74027744 -21.40625987 36.70131241 -18.5625 33.125 C-17.66774663 31.98687371 -16.77458234 30.84749677 -15.8828125 29.70703125 C-15.41520508 29.10971191 -14.94759766 28.51239258 -14.46582031 27.89697266 C-11.90032395 24.57686827 -9.4176199 21.19660415 -6.9375 17.8125 C-6.46062744 17.16490723 -5.98375488 16.51731445 -5.49243164 15.85009766 C-3.04915801 12.54893324 -3.04915801 12.54893324 -1 9 C-11.56 9 -22.12 9 -33 9 C-33.66 12.3 -34.32 15.6 -35 19 C-34.05125 18.195625 -33.1025 17.39125 -32.125 16.5625 C-28.08187537 13.13463347 -25.74044842 12.88489756 -20.375 12.9375 C-19.18648437 12.94652344 -17.99796875 12.95554687 -16.7734375 12.96484375 C-15.85820312 12.97644531 -14.94296875 12.98804688 -14 13 C-16.21973844 16.88454226 -18.74146427 20.35518006 -21.5 23.875 C-27.15519929 31.13729829 -32.5853758 38.55746521 -38 46 C-41 45 -41 45 -42.1328125 43.0390625 C-42.62394531 41.84410156 -42.62394531 41.84410156 -43.125 40.625 C-43.45757812 39.83351562 -43.79015625 39.04203125 -44.1328125 38.2265625 C-46.84259551 31.26901153 -47.26144064 24.1433374 -44.25 17.1875 C-39.68554887 8.24944587 -34.03151406 1.54378304 -24.5859375 -2.30859375 C-16.48010847 -4.47586224 -7.50468238 -3.78087611 0 0 Z " fill="#2359AC" transform="translate(161,17)"/>
<path d="M0 0 C2.64 0 5.28 0 8 0 C7.67 4.29 7.34 8.58 7 13 C11.62 13 16.24 13 21 13 C20.505 6.565 20.505 6.565 20 0 C22.31 0 24.62 0 27 0 C27.33 9.9 27.66 19.8 28 30 C25.03 30 22.06 30 19 30 C19.33 29.01 19.66 28.02 20 27 C20.22179785 25.10787263 20.40614015 23.21115528 20.5625 21.3125 C20.706875 19.559375 20.85125 17.80625 21 16 C16.38 16 11.76 16 7 16 C7.33 20.62 7.66 25.24 8 30 C5.36 30 2.72 30 0 30 C0 20.1 0 10.2 0 0 Z " fill="#132E61" transform="translate(203,98)"/>
<path d="M0 0 C10.56 0 21.12 0 32 0 C30.2387778 4.40305549 28.33187667 7.4452153 25.4375 11.0625 C24.5382829 12.20641884 23.63986389 13.35096545 22.7421875 14.49609375 C22.28682617 15.07472168 21.83146484 15.65334961 21.36230469 16.24951172 C18.4749229 19.95964209 15.70310185 23.75768788 12.91015625 27.5390625 C11.36580168 29.52872176 9.83566877 31.28517463 8 33 C8.33 31.35 8.66 29.7 9 28 C9.66 28 10.32 28 11 28 C10.34 26.35 9.68 24.7 9 23 C8.34 23 7.68 23 7 23 C5.62464661 24.97133986 4.29788956 26.97681922 3 29 C1.68456721 30.68083079 0.35683751 32.3524116 -1 34 C-1.66 33.67 -2.32 33.34 -3 33 C2.18535534 26.04861785 7.40919634 19.13148925 12.72412109 12.27856445 C14.56818767 9.89438068 16.32689326 7.5096601 18 5 C16.08364783 4.94576362 14.16685075 4.90710037 12.25 4.875 C11.18265625 4.85179687 10.1153125 4.82859375 9.015625 4.8046875 C6.01890746 4.99877542 4.45865591 5.32767098 2 7 C1.01 8.485 1.01 8.485 0 10 C-0.66 10 -1.32 10 -2 10 C-1.34 6.7 -0.68 3.4 0 0 Z " fill="#F2F8FA" transform="translate(128,26)"/>
<path d="M0 0 C2.31 0 4.62 0 7 0 C7.02505615 0.68102783 7.0501123 1.36205566 7.07592773 2.0637207 C7.19190952 5.14683755 7.31462616 8.22965046 7.4375 11.3125 C7.47681641 12.38435547 7.51613281 13.45621094 7.55664062 14.56054688 C7.61948242 16.10258789 7.61948242 16.10258789 7.68359375 17.67578125 C7.72025146 18.62364502 7.75690918 19.57150879 7.79467773 20.5480957 C7.91430187 23.136171 7.91430187 23.136171 9 26 C10.45922693 25.88590407 11.91740598 25.75834456 13.375 25.625 C14.59316406 25.52058594 14.59316406 25.52058594 15.8359375 25.4140625 C18.20334191 25.17107412 18.20334191 25.17107412 20 23 C20.27787668 20.57402049 20.27787668 20.57402049 20.1953125 17.7734375 C20.18886719 16.7421875 20.18242188 15.7109375 20.17578125 14.6484375 C20.15902344 13.56820312 20.14226562 12.48796875 20.125 11.375 C20.11597656 10.28703125 20.10695313 9.1990625 20.09765625 8.078125 C20.07403409 5.38519848 20.04109556 2.69270745 20 0 C22.31 0 24.62 0 27 0 C27.08741124 3.56234428 27.14052896 7.12441108 27.1875 10.6875 C27.21263672 11.69490234 27.23777344 12.70230469 27.26367188 13.74023438 C27.32757968 20.19492279 26.77370662 23.76400894 22.5 28.75 C19.20971429 31.49190476 15.35984386 31.32884212 11.2890625 31.2890625 C7.76990349 30.84466358 5.6541482 29.26573627 3 27 C0.77464206 23.66196309 0.71021596 22.37180289 0.5859375 18.45703125 C0.54726562 17.38388672 0.50859375 16.31074219 0.46875 15.20507812 C0.4378125 14.08552734 0.406875 12.96597656 0.375 11.8125 C0.31699219 10.11577148 0.31699219 10.11577148 0.2578125 8.38476562 C0.16347467 5.5900075 0.07788348 2.79525722 0 0 Z " fill="#153263" transform="translate(93,98)"/>
<path d="M0 0 C7.92 0 15.84 0 24 0 C19.5032742 7.86927015 19.5032742 7.86927015 17.01953125 11.33203125 C16.49552734 12.06744141 15.97152344 12.80285156 15.43164062 13.56054688 C14.89732422 14.30369141 14.36300781 15.04683594 13.8125 15.8125 C12.73448485 17.31815752 11.65760495 18.8246287 10.58203125 20.33203125 C9.87397339 21.31780151 9.87397339 21.31780151 9.15161133 22.32348633 C7.94059144 24.00398542 7.94059144 24.00398542 7 26 C16.19838236 25.52269916 16.19838236 25.52269916 25 23 C23.125 28.875 23.125 28.875 22 30 C20.07332493 30.08748207 18.14348139 30.10697334 16.21484375 30.09765625 C15.04501953 30.09443359 13.87519531 30.09121094 12.66992188 30.08789062 C10.82237305 30.07532227 10.82237305 30.07532227 8.9375 30.0625 C7.08415039 30.05573242 7.08415039 30.05573242 5.19335938 30.04882812 C2.12885883 30.03699608 -0.93554721 30.02051173 -4 30 C1.73463353 20.81088587 7.82618636 11.89788331 14 3 C11.89535207 3.30924214 9.7912947 3.6225056 7.6875 3.9375 C5.92986328 4.19853516 5.92986328 4.19853516 4.13671875 4.46484375 C0.98358597 4.92093031 0.98358597 4.92093031 -2 6 C-1.34 4.02 -0.68 2.04 0 0 Z " fill="#1A3364" transform="translate(63,98)"/>
<path d="M0 0 C3.8053125 -0.12375 3.8053125 -0.12375 7.6875 -0.25 C8.87218872 -0.30462402 8.87218872 -0.30462402 10.08081055 -0.36035156 C13.84842122 -0.41942145 15.6652776 -0.20223726 18.98046875 1.80078125 C21 4 21 4 21.625 7.4375 C20.85783205 11.81035733 19.27754573 13.13214749 16 16 C16 19.23855172 18.28874867 20.69369592 20.4375 23 C24.90508475 27.81016949 24.90508475 27.81016949 26 30 C22.23910288 30.54846416 20.12893551 30.741453 16.89453125 28.6171875 C13.23696897 25.44684271 9.61511732 22.09322712 7 18 C8 15 8 15 11.0625 13.125 C12.031875 12.42375 13.00125 11.7225 14 11 C14.50241322 8.3295947 14.50241322 8.3295947 14 6 C11.36 5.01 8.72 4.02 6 3 C6 6.63 6 10.26 6 14 C5.01 14.33 4.02 14.66 3 15 C3 17.31 3 19.62 3 22 C3.33 22 3.66 22 4 22 C4.33 20.35 4.66 18.7 5 17 C5.33 17 5.66 17 6 17 C6 20.96 6 24.92 6 29 C4.35 29 2.7 29 1 29 C0.67 19.43 0.34 9.86 0 0 Z " fill="#1C3368" transform="translate(128,98)"/>
<path d="M0 0 C0 1.65 0 3.3 0 5 C-0.495 4.835 -0.99 4.67 -1.5 4.5 C-6.69328894 3.46134221 -10.46446434 3.01987086 -14.9375 5.875 C-18.36535138 9.40672567 -18.27234054 12.00025391 -18.2265625 16.73828125 C-17.92266365 19.77203013 -16.90951945 21.64982222 -15 24 C-12.52621876 25.23689062 -10.82084683 25.13310087 -8.0625 25.125 C-7.18722656 25.12757812 -6.31195313 25.13015625 -5.41015625 25.1328125 C-2.85540944 25.09822003 -2.85540944 25.09822003 0 24 C0 25.65 0 27.3 0 29 C-4.37281435 31.46217024 -8.07178686 31.65547662 -13 31 C-18.28269235 29.28242867 -22.01346276 26.77845958 -25 22 C-26.66669387 17.83326532 -26.86489184 13.07496472 -25.12890625 8.91015625 C-20.15025412 0.14446382 -9.81319539 -4.9065977 0 0 Z " fill="#1E3668" transform="translate(197,98)"/>
<path d="M0 0 C2.64 0 5.28 0 8 0 C8 9.9 8 19.8 8 30 C5.03 30 2.06 30 -1 30 C-0.67 29.34 -0.34 28.68 0 28 C0.08543895 25.89471067 0.10714725 23.78668843 0.09765625 21.6796875 C0.09443359 20.42285156 0.09121094 19.16601562 0.08789062 17.87109375 C0.07951172 16.55238281 0.07113281 15.23367187 0.0625 13.875 C0.05748489 12.53515789 0.05292201 11.195314 0.04882812 9.85546875 C0.03701086 6.57026794 0.02053617 3.28515603 0 0 Z " fill="#0F2B4F" transform="translate(158,98)"/>
<path d="M0 0 C0.33 0 0.66 0 1 0 C1 9.24 1 18.48 1 28 C2.65 28 4.3 28 6 28 C5.67 26.02 5.34 24.04 5 22 C4.01 22 3.02 22 2 22 C1.8046875 15.9453125 1.8046875 15.9453125 2 14 C2.66 13.34 3.32 12.68 4 12 C4.66 12.33 5.32 12.66 6 13 C6 9.37 6 5.74 6 2 C12.75 2.75 12.75 2.75 15 5 C15.5625 7.3125 15.5625 7.3125 15 10 C13.85829882 10.6890067 12.68641834 11.3287116 11.5 11.9375 C9.45690412 13.05363385 9.45690412 13.05363385 8 15 C7.36085224 19.71572888 7.59665577 24.26870815 8 29 C5.03 29 2.06 29 -1 29 C-0.67 19.43 -0.34 9.86 0 0 Z " fill="#546892" transform="translate(128,99)"/>
<path d="M0 0 C1 3 1 3 -0.625 6.5 C-2.45471327 9.837397 -4.58092879 11.34753162 -8 13 C-16.59249167 14.19091166 -25.52674642 12.40385266 -34 11 C-34 10.67 -34 10.34 -34 10 C-32.02 10 -30.04 10 -28 10 C-28 9.34 -28 8.68 -28 8 C-27.42556152 7.9906543 -26.85112305 7.98130859 -26.25927734 7.97167969 C-23.63034696 7.91764969 -21.00313433 7.83407106 -18.375 7.75 C-17.47136719 7.73582031 -16.56773437 7.72164062 -15.63671875 7.70703125 C-9.97242165 7.50030508 -6.44963339 6.84605536 -2 3 C-1.34 2.01 -0.68 1.02 0 0 Z " fill="#E0F0F9" transform="translate(166,53)"/>
<path d="M0 0 C0 0.66 0 1.32 0 2 C1.32 2.33 2.64 2.66 4 3 C2.68 3 1.36 3 0 3 C1.3553326 5.53673288 1.3553326 5.53673288 3 8 C3.66 8 4.32 8 5 8 C5.33 7.01 5.66 6.02 6 5 C6.99 5.66 7.98 6.32 9 7 C9.66 6.67 10.32 6.34 11 6 C10.71753022 8.73054122 10.23740434 9.79076228 8.15625 11.625 C3.3853091 13.7034297 -1.17265566 13.31574947 -6.3125 13.1875 C-7.33923828 13.17396484 -8.36597656 13.16042969 -9.42382812 13.14648438 C-11.94975909 13.11123883 -14.4746066 13.061967 -17 13 C-17 12.67 -17 12.34 -17 12 C-12.05 12 -7.1 12 -2 12 C-2.66 10.906875 -3.32 9.81375 -4 8.6875 C-5.58464929 6.06292462 -6 5.1743622 -6 2 C-2.25 0 -2.25 0 0 0 Z " fill="#305EAF" transform="translate(153,48)"/>
<path d="M0 0 C2.31 0 4.62 0 7 0 C6.89045592 3.62564187 6.7597504 7.25021431 6.625 10.875 C6.5940625 11.90753906 6.563125 12.94007812 6.53125 14.00390625 C6.49257812 14.99003906 6.45390625 15.97617188 6.4140625 16.9921875 C6.3826416 17.90339355 6.3512207 18.81459961 6.31884766 19.75341797 C6 22 6 22 4 24 C3.01 23.34 2.02 22.68 1 22 C0.56762695 19.75341797 0.56762695 19.75341797 0.48828125 16.9921875 C0.45283203 16.00605469 0.41738281 15.01992187 0.38085938 14.00390625 C0.35830078 12.97136719 0.33574219 11.93882813 0.3125 10.875 C0.27833984 9.83472656 0.24417969 8.79445313 0.20898438 7.72265625 C0.12632942 5.14854493 0.05723845 2.57478171 0 0 Z " fill="#123063" transform="translate(93,98)"/>
<path d="M0 0 C4.29 0 8.58 0 13 0 C8.46780033 2.26609984 6.82227075 1.92735976 2 1 C2 1.66 2 2.32 2 3 C3.32 3 4.64 3 6 3 C6 6.63 6 10.26 6 14 C5.01 14.33 4.02 14.66 3 15 C3 17.31 3 19.62 3 22 C3.33 22 3.66 22 4 22 C4.33 20.35 4.66 18.7 5 17 C5.33 17 5.66 17 6 17 C6 20.96 6 24.92 6 29 C4.35 29 2.7 29 1 29 C0.67 19.43 0.34 9.86 0 0 Z " fill="#0E2250" transform="translate(128,98)"/>
<path d="M0 0 C10.23 0 20.46 0 31 0 C31 0.33 31 0.66 31 1 C24.565 1.495 24.565 1.495 18 2 C18.66 2.33 19.32 2.66 20 3 C20 3.99 20 4.98 20 6 C19.34 5.67 18.68 5.34 18 5 C16.04450744 4.87742539 14.08429382 4.82447612 12.125 4.8125 C11.07570312 4.79832031 10.02640625 4.78414062 8.9453125 4.76953125 C6.00617075 4.99951714 4.42283203 5.36486 2 7 C1.01 8.485 1.01 8.485 0 10 C-0.66 10 -1.32 10 -2 10 C-1.34 6.7 -0.68 3.4 0 0 Z " fill="#D6E9F8" transform="translate(128,26)"/>
<path d="M0 0 C0.33 0 0.66 0 1 0 C1.02505615 0.55985596 1.0501123 1.11971191 1.07592773 1.6965332 C1.19203745 4.23541305 1.3146958 6.77393553 1.4375 9.3125 C1.47681641 10.19357422 1.51613281 11.07464844 1.55664062 11.98242188 C1.59853516 12.82998047 1.64042969 13.67753906 1.68359375 14.55078125 C1.72025146 15.33106689 1.75690918 16.11135254 1.79467773 16.9152832 C1.94125263 19.19329101 1.94125263 19.19329101 3 22 C5.64 22 8.28 22 11 22 C11 22.66 11 23.32 11 24 C12.32 24 13.64 24 15 24 C15 24.66 15 25.32 15 26 C9.55005213 27.81664929 4.74649222 27.85736891 -0.4375 25.3125 C-3.0726148 22.93446957 -4.06026802 21.38303514 -5 18 C-3.68 18 -2.36 18 -1 18 C-0.505 9.09 -0.505 9.09 0 0 Z " fill="#2F436E" transform="translate(99,102)"/>
<path d="M0 0 C-1.875 5.875 -1.875 5.875 -3 7 C-4.92667507 7.08748207 -6.85651861 7.10697334 -8.78515625 7.09765625 C-9.95498047 7.09443359 -11.12480469 7.09121094 -12.33007812 7.08789062 C-14.17762695 7.07532227 -14.17762695 7.07532227 -16.0625 7.0625 C-17.91584961 7.05573242 -17.91584961 7.05573242 -19.80664062 7.04882812 C-22.87114117 7.03699608 -25.93554721 7.02051173 -29 7 C-29 6.67 -29 6.34 -29 6 C-27.02 6 -25.04 6 -23 6 C-22.67 4.68 -22.34 3.36 -22 2 C-20.00116467 2 -18.00219138 2.02341663 -16.00390625 2.0703125 C-14.30041016 2.09738281 -14.30041016 2.09738281 -12.5625 2.125 C-11.42941406 2.14820312 -10.29632813 2.17140625 -9.12890625 2.1953125 C-5.68154177 1.98012121 -3.26777111 0 0 0 Z " fill="#2F4A77" transform="translate(88,121)"/>
<path d="M0 0 C0.33 0 0.66 0 1 0 C1.33 9.24 1.66 18.48 2 28 C-0.97 28 -3.94 28 -7 28 C-6.505 26.515 -6.505 26.515 -6 25 C-5.77820215 23.10787263 -5.59385985 21.21115528 -5.4375 19.3125 C-5.35371094 18.31863281 -5.26992187 17.32476562 -5.18359375 16.30078125 C-5.12300781 15.54152344 -5.06242188 14.78226563 -5 14 C-3.68 13.67 -2.36 13.34 -1 13 C-0.67 8.71 -0.34 4.42 0 0 Z " fill="#395285" transform="translate(229,100)"/>
<path d="M0 0 C0.33 0 0.66 0 1 0 C1.33 4.29 1.66 8.58 2 13 C3.32 13 4.64 13 6 13 C6.33 17.62 6.66 22.24 7 27 C4.36 27 1.72 27 -1 27 C-0.67 18.09 -0.34 9.18 0 0 Z " fill="#253C70" transform="translate(204,101)"/>
<path d="M0 0 C1.60080151 4.00200378 0.29279692 7.04556236 -1 11 C-0.05125 10.195625 0.8975 9.39125 1.875 8.5625 C5.91812463 5.13463347 8.25955158 4.88489756 13.625 4.9375 C14.81351563 4.94652344 16.00203125 4.95554687 17.2265625 4.96484375 C18.14179688 4.97644531 19.05703125 4.98804688 20 5 C18.19587357 8.26460973 17.16605307 9.88929795 14 12 C13.67 10.68 13.34 9.36 13 8 C10.36 8.33 7.72 8.66 5 9 C4.87625 9.639375 4.7525 10.27875 4.625 10.9375 C4.41875 11.618125 4.2125 12.29875 4 13 C3.01 13.495 3.01 13.495 2 14 C2 13.34 2 12.68 2 12 C0.68 12.33 -0.64 12.66 -2 13 C-2.33 11.02 -2.66 9.04 -3 7 C-2.34 7 -1.68 7 -1 7 C-0.67 4.69 -0.34 2.38 0 0 Z " fill="#2D579C" transform="translate(127,25)"/>
<path d="M0 0 C0.66 0.33 1.32 0.66 2 1 C1.525625 1.598125 1.05125 2.19625 0.5625 2.8125 C-1.16465744 5.00382924 -1.16465744 5.00382924 -2 8 C-2.66 8 -3.32 8 -4 8 C-4.226875 8.721875 -4.45375 9.44375 -4.6875 10.1875 C-6.25621997 13.5490428 -8.35641222 15.42088997 -11 18 C-13.33084721 21.23661894 -13.33084721 21.23661894 -14 25 C-14.66 25.33 -15.32 25.66 -16 26 C-16.33 26.99 -16.66 27.98 -17 29 C-16.34 29.33 -15.68 29.66 -15 30 C-17.31 30 -19.62 30 -22 30 C-20.7065319 27.26517452 -19.28042931 24.87563364 -17.4609375 22.4609375 C-16.96625977 21.80222656 -16.47158203 21.14351562 -15.96191406 20.46484375 C-15.43823242 19.77519531 -14.91455078 19.08554687 -14.375 18.375 C-13.84100586 17.66730469 -13.30701172 16.95960937 -12.75683594 16.23046875 C-8.60032253 10.74177154 -4.35724085 5.33121233 0 0 Z " fill="#2F5A9F" transform="translate(159,29)"/>
<path d="M0 0 C5.75 0.75 5.75 0.75 8 3 C8.375 5.4375 8.375 5.4375 8 8 C6.25 9.8125 6.25 9.8125 4 11 C2.68 11 1.36 11 0 11 C0 7.37 0 3.74 0 0 Z " fill="#EAF4FB" transform="translate(135,101)"/>
<path d="M0 0 C0 1.65 0 3.3 0 5 C-2.97465763 6.70754834 -5.13860832 7.27317355 -8.5625 7.25 C-9.70912109 7.25773438 -9.70912109 7.25773438 -10.87890625 7.265625 C-13 7 -13 7 -16 5 C-14.81640625 3.01171875 -14.81640625 3.01171875 -13 1 C-10.58984375 0.64453125 -10.58984375 0.64453125 -7.9375 0.8125 C-4.94640529 0.97501175 -2.67927546 0 0 0 Z " fill="#294068" transform="translate(197,122)"/>
<path d="M0 0 C1.32 0 2.64 0 4 0 C4 6.93 4 13.86 4 21 C3.34 21.33 2.68 21.66 2 22 C2 15.4 2 8.8 2 2 C1.34 2 0.68 2 0 2 C0 7.61 0 13.22 0 19 C-0.33 19 -0.66 19 -1 19 C-1.02683987 16.02077407 -1.04676037 13.04178705 -1.0625 10.0625 C-1.07087891 9.21236328 -1.07925781 8.36222656 -1.08789062 7.48632812 C-1.09111328 6.67744141 -1.09433594 5.86855469 -1.09765625 5.03515625 C-1.10289307 4.2862915 -1.10812988 3.53742676 -1.11352539 2.76586914 C-1 1 -1 1 0 0 Z " fill="#263F6D" transform="translate(116,99)"/>
<path d="M0 0 C0.33 0 0.66 0 1 0 C1.33 9.24 1.66 18.48 2 28 C-0.97 28 -3.94 28 -7 28 C-6.01 27.34 -5.02 26.68 -4 26 C-3.63501966 23.10391601 -3.63501966 23.10391601 -3.8125 19.875 C-3.83957031 18.77929688 -3.86664063 17.68359375 -3.89453125 16.5546875 C-3.94673828 15.29011719 -3.94673828 15.29011719 -4 14 C-3.67 14 -3.34 14 -3 14 C-2.855625 15.134375 -2.71125 16.26875 -2.5625 17.4375 C-2.38828522 20.80777201 -2.38828522 20.80777201 -1 22 C-0.67 14.74 -0.34 7.48 0 0 Z " fill="#384F7A" transform="translate(164,100)"/>
<path d="M0 0 C3.75376152 1.25125384 4.24073289 2.5652404 6 6 C6 6.66 6 7.32 6 8 C1.05 8 -3.9 8 -9 8 C-9 7.67 -9 7.34 -9 7 C-7.02 6.67 -5.04 6.34 -3 6 C-2.67 4.68 -2.34 3.36 -2 2 C-1.34 2 -0.68 2 0 2 C0 1.34 0 0.68 0 0 Z " fill="#1E53A5" transform="translate(145,52)"/>
<path d="M0 0 C2 2 2 2 2.22705078 4.06298828 C2.21657715 4.89040527 2.20610352 5.71782227 2.1953125 6.5703125 C2.18886719 7.46621094 2.18242187 8.36210938 2.17578125 9.28515625 C2.15902344 10.22230469 2.14226562 11.15945312 2.125 12.125 C2.11597656 13.06988281 2.10695312 14.01476562 2.09765625 14.98828125 C2.07404522 17.32577292 2.04111516 19.66276123 2 22 C1.34 21.67 0.68 21.34 0 21 C-1.47849704 14.49461302 -1.3269545 7.63525315 -1 1 C-0.67 0.67 -0.34 0.34 0 0 Z " fill="#15336F" transform="translate(161,100)"/>
<path d="M0 0 C8.25 0 16.5 0 25 0 C25 1.32 25 2.64 25 4 C24.34 4 23.68 4 23 4 C22.87625 4.639375 22.7525 5.27875 22.625 5.9375 C22.315625 6.9584375 22.315625 6.9584375 22 8 C21.01 8.495 21.01 8.495 20 9 C18.86649466 11.01669827 18.86649466 11.01669827 18 13 C17.01 12.67 16.02 12.34 15 12 C17.31 8.7 19.62 5.4 22 2 C14.74 1.67 7.48 1.34 0 1 C0 0.67 0 0.34 0 0 Z " fill="#C1CED9" transform="translate(64,97)"/>
<path d="M0 0 C2.31 0 4.62 0 7 0 C6.71926927 2.14729141 6.42511501 4.29283193 6.125 6.4375 C5.96257812 7.63246094 5.80015625 8.82742187 5.6328125 10.05859375 C5.31957031 11.51458984 5.31957031 11.51458984 5 13 C4.01 13.495 4.01 13.495 3 14 C2.01 9.38 1.02 4.76 0 0 Z " fill="#152F6B" transform="translate(223,98)"/>
<path d="M0 0 C-0.33 0.99 -0.66 1.98 -1 3 C-2.134375 3.12375 -3.26875 3.2475 -4.4375 3.375 C-6.2009375 3.684375 -6.2009375 3.684375 -8 4 C-8.33 4.66 -8.66 5.32 -9 6 C-9.66 6 -10.32 6 -11 6 C-11 6.66 -11 7.32 -11 8 C-11.99 8 -12.98 8 -14 8 C-14.28875 8.639375 -14.5775 9.27875 -14.875 9.9375 C-16 12 -16 12 -18 13 C-16.64527694 7.41176736 -12.41886827 4.30998246 -8 1 C-4.84961475 -0.83094345 -3.48493967 -1.24462131 0 0 Z " fill="#2658A0" transform="translate(138,17)"/>
<path d="M0 0 C-0.66 1.98 -1.32 3.96 -2 6 C-7.61 6 -13.22 6 -19 6 C-15.23080759 4.11540379 -12.27927639 3.34123109 -8.21875 2.5625 C-5.28968499 1.81992014 -3.02151842 0 0 0 Z " fill="#0F2B61" transform="translate(88,121)"/>
<path d="M0 0 C2.97 0 5.94 0 9 0 C9 0.33 9 0.66 9 1 C6.69 1.33 4.38 1.66 2 2 C2 10.91 2 19.82 2 29 C1.67 29 1.34 29 1 29 C0.67 21.74 0.34 14.48 0 7 C-0.99 6.67 -1.98 6.34 -3 6 C-2.67 5.01 -2.34 4.02 -2 3 C-1.34 3 -0.68 3 0 3 C0 2.01 0 1.02 0 0 Z " fill="#B3C9DC" transform="translate(157,97)"/>
<path d="M0 0 C0.33 0 0.66 0 1 0 C1.33 2.97 1.66 5.94 2 9 C2.66 8.67 3.32 8.34 4 8 C3.814375 8.9075 3.62875 9.815 3.4375 10.75 C3.04265379 13.68314324 3.05308428 15.2644657 4 18 C5.32 18.33 6.64 18.66 8 19 C7.67 20.32 7.34 21.64 7 23 C4 22 4 22 2.83203125 20.390625 C-0.40770744 13.58841503 -0.41402705 7.44098608 0 0 Z " fill="#265497" transform="translate(116,40)"/>
<path d="M0 0 C0.66 0 1.32 0 2 0 C2.66 1.32 3.32 2.64 4 4 C4.99 3.01 5.98 2.02 7 1 C7.33 3.97 7.66 6.94 8 10 C7.21625 9.979375 6.4325 9.95875 5.625 9.9375 C3.01885039 9.81315937 3.01885039 9.81315937 1 11 C-0.17571451 7.32589215 -0.07366746 3.83070817 0 0 Z " fill="#2C4771" transform="translate(171,109)"/>
<path d="M0 0 C-0.66 3.3 -1.32 6.6 -2 10 C-2.99 10 -3.98 10 -5 10 C-5.66 7.36 -6.32 4.72 -7 2 C-4 0 -4 0 0 0 Z " fill="#17346B" transform="translate(179,105)"/>
<path d="M0 0 C0.33 0 0.66 0 1 0 C1 3.63 1 7.26 1 11 C1.66 11 2.32 11 3 11 C2.54917531 12.46067199 2.08906463 13.91848032 1.625 15.375 C1.36976563 16.18710937 1.11453125 16.99921875 0.8515625 17.8359375 C0 20 0 20 -2 22 C-2.66 22 -3.32 22 -4 22 C-3.525625 20.783125 -3.05125 19.56625 -2.5625 18.3125 C-0.53454722 12.32429981 -0.28131612 6.27625974 0 0 Z " fill="#CCDEF0" transform="translate(177,40)"/>
<path d="M0 0 C1.32 0 2.64 0 4 0 C4 3.63 4 7.26 4 11 C2.68 11.33 1.36 11.66 0 12 C0 8.04 0 4.08 0 0 Z " fill="#103064" transform="translate(130,101)"/>
<path d="M0 0 C0.680625 0.70125 1.36125 1.4025 2.0625 2.125 C5.20780513 5.27934337 8.5888386 8.13934304 12 11 C10.1953125 11.65234375 10.1953125 11.65234375 8 12 C5.94720004 10.39881603 3.94348501 8.73223664 2 7 C1.34 7 0.68 7 0 7 C0 4.69 0 2.38 0 0 Z " fill="#E4EEF5" transform="translate(135,116)"/>
<path d="M0 0 C1.98 0 3.96 0 6 0 C6 0.66 6 1.32 6 2 C7.32 2 8.64 2 10 2 C10 2.66 10 3.32 10 4 C7.11788698 4.96070434 5.30149956 5.10581883 2.3125 5.0625 C1.10013672 5.04896484 1.10013672 5.04896484 -0.13671875 5.03515625 C-1.05904297 5.01775391 -1.05904297 5.01775391 -2 5 C-1.34 3.35 -0.68 1.7 0 0 Z " fill="#39507B" transform="translate(104,124)"/>
<path d="M0 0 C0.33 0.99 0.66 1.98 1 3 C0.01 4.485 0.01 4.485 -1 6 C-1.47953125 5.50886719 -1.9590625 5.01773438 -2.453125 4.51171875 C-6.17856129 2.30045518 -9.50602447 2.67525701 -13.75 2.8125 C-14.54277344 2.82603516 -15.33554688 2.83957031 -16.15234375 2.85351562 C-18.10185564 2.88874777 -20.05101626 2.94255179 -22 3 C-22 2.34 -22 1.68 -22 1 C-19.45847098 0.83096719 -16.91681012 0.66470573 -14.375 0.5 C-13.30572266 0.42845703 -13.30572266 0.42845703 -12.21484375 0.35546875 C-8.13492439 0.09345558 -4.09108781 -0.05162256 0 0 Z " fill="#CDD7E2" transform="translate(149,96)"/>
<path d="M0 0 C4.62 0 9.24 0 14 0 C14 0.99 14 1.98 14 3 C12.22925083 3.02705729 10.45838289 3.04642195 8.6875 3.0625 C7.70136719 3.07410156 6.71523437 3.08570312 5.69921875 3.09765625 C3 3 3 3 0 2 C0 1.34 0 0.68 0 0 Z " fill="#F8FEFD" transform="translate(140,62)"/>
<path d="M0 0 C0.66 0.33 1.32 0.66 2 1 C1.6875 2.9375 1.6875 2.9375 1 5 C0.01 5.33 -0.98 5.66 -2 6 C-3.38442 7.96498322 -4.71203834 9.97048465 -6 12 C-7.31543279 13.68083079 -8.64316249 15.3524116 -10 17 C-10.66 16.67 -11.32 16.34 -12 16 C-8 10.66666667 -4 5.33333333 0 0 Z " fill="#DBECFB" transform="translate(137,43)"/>
<path d="M0 0 C-0.33 0.33 -0.66 0.66 -1 1 C-1.15740605 2.70563778 -1.25093392 4.41727244 -1.31640625 6.12890625 C-1.35830078 7.16337891 -1.40019531 8.19785156 -1.44335938 9.26367188 C-1.48267578 10.35228516 -1.52199219 11.44089844 -1.5625 12.5625 C-1.62727539 14.2012207 -1.62727539 14.2012207 -1.69335938 15.87304688 C-1.79982068 18.58189564 -1.90183516 21.29083992 -2 24 C-2.33 24 -2.66 24 -3 24 C-3.33 17.07 -3.66 10.14 -4 3 C-4.66 2.67 -5.32 2.34 -6 2 C-6 1.34 -6 0.68 -6 0 C-3.50907189 -1.24546405 -2.58919267 -0.7767578 0 0 Z " fill="#142A5B" transform="translate(166,99)"/>
<path d="M0 0 C-0.99 1.32 -1.98 2.64 -3 4 C-5.64 3.34 -8.28 2.68 -11 2 C-11.33 2.66 -11.66 3.32 -12 4 C-12 3.34 -12 2.68 -12 2 C-12.66 2 -13.32 2 -14 2 C-14 1.34 -14 0.68 -14 0 C-12.9275 0.020625 -11.855 0.04125 -10.75 0.0625 C-7.21993579 0.14516436 -7.21993579 0.14516436 -4.75 -0.5625 C-3 -1 -3 -1 0 0 Z " fill="#2A3C72" transform="translate(144,99)"/>
<path d="M0 0 C2.64 0 5.28 0 8 0 C7.67 0.66 7.34 1.32 7 2 C10.3 2.33 13.6 2.66 17 3 C17 3.33 17 3.66 17 4 C14.9377952 4.054348 12.87517184 4.09294961 10.8125 4.125 C9.66394531 4.14820312 8.51539063 4.17140625 7.33203125 4.1953125 C4.08259628 4.00484152 1.91339479 3.39360127 -1 2 C-0.67 1.34 -0.34 0.68 0 0 Z " fill="#3C69AF" transform="translate(135,72)"/>
<path d="M0 0 C0.33 0 0.66 0 1 0 C1 3.96 1 7.92 1 12 C-0.32 12 -1.64 12 -3 12 C-3 10.02 -3 8.04 -3 6 C-2.34 5.67 -1.68 5.34 -1 5 C-0.34444881 2.47266765 -0.34444881 2.47266765 0 0 Z " fill="#112C66" transform="translate(133,115)"/>
<path d="M0 0 C1 3 1 3 0.22265625 4.82421875 C-0.8515625 6.54947917 -1.92578125 8.27473958 -3 10 C-3.66 10 -4.32 10 -5 10 C-5 9.34 -5 8.68 -5 8 C-5.99 7.67 -6.98 7.34 -8 7 C-7.05125 6.401875 -6.1025 5.80375 -5.125 5.1875 C-1.86035803 3.18437474 -1.86035803 3.18437474 0 0 Z " fill="#CEE9F7" transform="translate(166,53)"/>
<path d="M0 0 C0.66 0.66 1.32 1.32 2 2 C1.34 2 0.68 2 0 2 C0 2.66 0 3.32 0 4 C0.66 4.33 1.32 4.66 2 5 C2 5.66 2 6.32 2 7 C2.33 7.66 2.66 8.32 3 9 C1.1875 9.6875 1.1875 9.6875 -1 10 C-2.75 8.5625 -2.75 8.5625 -4 7 C-3.34 6.67 -2.68 6.34 -2 6 C-2.33 4.68 -2.66 3.36 -3 2 C-2.01 1.34 -1.02 0.68 0 0 Z " fill="#294374" transform="translate(142,109)"/>
<path d="M0 0 C0.33 0 0.66 0 1 0 C1 3.63 1 7.26 1 11 C2.65 11 4.3 11 6 11 C6.33 11.66 6.66 12.32 7 13 C4.03 13 1.06 13 -2 13 C-1.34 8.71 -0.68 4.42 0 0 Z " fill="#223764" transform="translate(224,115)"/>
<path d="M0 0 C0.66 0.66 1.32 1.32 2 2 C3.175625 2.165 4.35125 2.33 5.5625 2.5 C7.2640625 2.7475 7.2640625 2.7475 9 3 C9.33 3.66 9.66 4.32 10 5 C6.04 5 2.08 5 -2 5 C-1.34 3.35 -0.68 1.7 0 0 Z " fill="#DEE9F3" transform="translate(72,119)"/>
<path d="M0 0 C1.32 0.33 2.64 0.66 4 1 C3.67 2.65 3.34 4.3 3 6 C2.34 6 1.68 6 1 6 C0.67 6.66 0.34 7.32 0 8 C-1.125 5.6875 -1.125 5.6875 -2 3 C-1.34 2.01 -0.68 1.02 0 0 Z " fill="#F5FCF6" transform="translate(138,102)"/>
<path d="M0 0 C0.8971875 0.309375 0.8971875 0.309375 1.8125 0.625 C1.34199219 1.01171875 0.87148437 1.3984375 0.38671875 1.796875 C-2.8692612 4.52030336 -5.84203533 7.03781874 -8.1875 10.625 C-7.8575 8.315 -7.5275 6.005 -7.1875 3.625 C-6.5275 3.625 -5.8675 3.625 -5.1875 3.625 C-5.1875 2.965 -5.1875 2.305 -5.1875 1.625 C-2.1875 -0.375 -2.1875 -0.375 0 0 Z " fill="#DBEFF8" transform="translate(127.1875,19.375)"/>
<path d="M0 0 C2.475 0.99 2.475 0.99 5 2 C5.33 1.34 5.66 0.68 6 0 C8.31 0.66 10.62 1.32 13 2 C13 2.33 13 2.66 13 3 C4.85762667 5.41835447 4.85762667 5.41835447 1.4375 3.75 C0 2 0 2 0 0 Z " fill="#172F5E" transform="translate(96,123)"/>
<path d="M0 0 C0.66 0.66 1.32 1.32 2 2 C1.625 4.625 1.625 4.625 1 7 C-0.9375 6.625 -0.9375 6.625 -3 6 C-3.33 5.34 -3.66 4.68 -4 4 C-2.68 2.68 -1.36 1.36 0 0 Z " fill="#F3F6FB" transform="translate(156,121)"/>
<path d="M0 0 C0.99 0 1.98 0 3 0 C3.33 1.32 3.66 2.64 4 4 C1 6 1 6 -1.1875 5.625 C-1.785625 5.41875 -2.38375 5.2125 -3 5 C-1.125 1.125 -1.125 1.125 0 0 Z " fill="#163463" transform="translate(113,121)"/>
<path d="M0 0 C0.66 0.33 1.32 0.66 2 1 C2.36871088 2.65919896 2.69595322 4.32774271 3 6 C3.63437344 7.6792238 4.29289322 9.35008418 5 11 C1.36905358 8.35039045 -0.89851796 5.98175544 -3 2 C-2.01 1.34 -1.02 0.68 0 0 Z " fill="#E7F0F8" transform="translate(145,112)"/>
<path d="M0 0 C0.99 0.33 1.98 0.66 3 1 C2.34 2.32 1.68 3.64 1 5 C1.66 5.66 2.32 6.32 3 7 C0 7 0 7 -1.6875 5.5 C-2.120625 5.005 -2.55375 4.51 -3 4 C-2.67 3.01 -2.34 2.02 -2 1 C-1.34 0.67 -0.68 0.34 0 0 Z " fill="#113162" transform="translate(138,112)"/>
<path d="M0 0 C0 0.66 0 1.32 0 2 C-0.66 2 -1.32 2 -2 2 C-2 2.66 -2 3.32 -2 4 C-6.625 6.125 -6.625 6.125 -10 5 C-10.33 4.34 -10.66 3.68 -11 3 C-9.54293274 2.49632243 -8.08429904 1.99717444 -6.625 1.5 C-5.81289062 1.2215625 -5.00078125 0.943125 -4.1640625 0.65625 C-2 0 -2 0 0 0 Z " fill="#E1F0F8" transform="translate(163,72)"/>
<path d="M0 0 C0.33 0.66 0.66 1.32 1 2 C-0.98 4.64 -2.96 7.28 -5 10 C-6 6 -6 6 -5 3 C-2.4375 1.3125 -2.4375 1.3125 0 0 Z " fill="#2B589B" transform="translate(139,38)"/>
<path d="M0 0 C0.66 0.33 1.32 0.66 2 1 C1.525625 1.598125 1.05125 2.19625 0.5625 2.8125 C-1.16465744 5.00382924 -1.16465744 5.00382924 -2 8 C-2.66 8 -3.32 8 -4 8 C-4.33 8.99 -4.66 9.98 -5 11 C-5.66 11 -6.32 11 -7 11 C-5.5140084 6.40693504 -3.14985318 3.56430755 0 0 Z " fill="#2D5495" transform="translate(159,29)"/>
<path d="M0 0 C1.18851563 0.00902344 2.37703125 0.01804687 3.6015625 0.02734375 C4.51679688 0.03894531 5.43203125 0.05054687 6.375 0.0625 C6.375 0.3925 6.375 0.7225 6.375 1.0625 C4.32421875 1.29036458 2.2734375 1.51822917 0.22265625 1.74609375 C-1.63640229 1.88136614 -1.63640229 1.88136614 -2.625 3.0625 C-4.29117115 3.10313832 -5.95888095 3.105221 -7.625 3.0625 C-7.955 2.4025 -8.285 1.7425 -8.625 1.0625 C-5.74084117 -0.37957941 -3.20778472 -0.03144887 0 0 Z " fill="#1C52A6" transform="translate(134.625,64.9375)"/>
<path d="M0 0 C3.24208567 0.35049575 4.61527704 0.56221181 6.8125 3.0625 C7.204375 3.701875 7.59625 4.34125 8 5 C5.69 5 3.38 5 1 5 C1 4.01 1 3.02 1 2 C1.66 1.67 2.32 1.34 3 1 C2.01 0.67 1.02 0.34 0 0 Z " fill="#2A4067" transform="translate(146,123)"/>
<path d="M0 0 C4.28806873 0.47645208 6.26647487 1.65902484 9 5 C9 5.66 9 6.32 9 7 C8.01 7 7.02 7 6 7 C4.97971135 5.68212715 3.98028616 4.34789347 3 3 C2.01 2.67 1.02 2.34 0 2 C0 1.34 0 0.68 0 0 Z " fill="#335BA0" transform="translate(162,20)"/>
<path d="M0 0 C0 0.99 0 1.98 0 3 C-0.66 3 -1.32 3 -2 3 C-2 3.66 -2 4.32 -2 5 C-2.66 5 -3.32 5 -4 5 C-4 5.66 -4 6.32 -4 7 C-6.475 6.01 -6.475 6.01 -9 5 C-8.443125 4.731875 -7.88625 4.46375 -7.3125 4.1875 C-4.80287477 2.89877353 -2.40665764 1.47073522 0 0 Z " fill="#285598" transform="translate(163,62)"/>
<path d="M0 0 C1.65 0.33 3.3 0.66 5 1 C5 1.66 5 2.32 5 3 C2.36 3.66 -0.28 4.32 -3 5 C-3 4.34 -3 3.68 -3 3 C-2.34 3 -1.68 3 -1 3 C-0.67 2.01 -0.34 1.02 0 0 Z " fill="#1D59BA" transform="translate(130,20)"/>
<path d="M0 0 C2.97 0 5.94 0 9 0 C9 0.33 9 0.66 9 1 C6.36 1 3.72 1 1 1 C0.67 2.98 0.34 4.96 0 7 C-0.99 6.67 -1.98 6.34 -3 6 C-2.67 5.01 -2.34 4.02 -2 3 C-1.34 3 -0.68 3 0 3 C0 2.01 0 1.02 0 0 Z " fill="#CDD4E0" transform="translate(157,97)"/>
<path d="M0 0 C0.66 0 1.32 0 2 0 C3.28571429 8.42857143 3.28571429 8.42857143 2 13 C1.67 13 1.34 13 1 13 C0.67 8.71 0.34 4.42 0 0 Z " fill="#EFFCFD" transform="translate(177,36)"/>
<path d="M0 0 C0.33 0.66 0.66 1.32 1 2 C0.67 2.99 0.34 3.98 0 5 C-0.99 5 -1.98 5 -3 5 C-3.28875 5.639375 -3.5775 6.27875 -3.875 6.9375 C-5 9 -5 9 -7 10 C-5.6062718 5.56541027 -3.39417765 3.12621626 0 0 Z " fill="#305D93" transform="translate(127,20)"/>
<path d="M0 0 C2.97 0.33 5.94 0.66 9 1 C9 1.33 9 1.66 9 2 C7.8553125 2.185625 7.8553125 2.185625 6.6875 2.375 C3.79732864 2.88102792 3.79732864 2.88102792 1 5 C0.01 4.67 -0.98 4.34 -2 4 C-1.34 2.68 -0.68 1.36 0 0 Z " fill="#3C5583" transform="translate(183,123)"/>
<path d="M0 0 C1.65 0 3.3 0 5 0 C1.25 5.875 1.25 5.875 -1 7 C-0.67 4.69 -0.34 2.38 0 0 Z " fill="#2F589A" transform="translate(127,50)"/>
<path d="M0 0 C2.31 0 4.62 0 7 0 C7 0.66 7 1.32 7 2 C7.66 2.33 8.32 2.66 9 3 C6.36 3 3.72 3 1 3 C0.67 2.01 0.34 1.02 0 0 Z " fill="#264EA7" transform="translate(148,15)"/>
<path d="M0 0 C2.475 0.495 2.475 0.495 5 1 C4.67 2.32 4.34 3.64 4 5 C2.68 4.67 1.36 4.34 0 4 C0 2.68 0 1.36 0 0 Z " fill="#1A2E62" transform="translate(178,122)"/>
<path d="M0 0 C0.66 0.33 1.32 0.66 2 1 C1.67 2.32 1.34 3.64 1 5 C-0.98 5 -2.96 5 -5 5 C-3 2 -3 2 0 0 Z " fill="#1E3773" transform="translate(77,107)"/>
<path d="M0 0 C0.99 0.33 1.98 0.66 3 1 C3 1.66 3 2.32 3 3 C3.66 3.33 4.32 3.66 5 4 C2.29120665 5.35439668 -0.00933268 5.06501451 -3 5 C-2.01 3.35 -1.02 1.7 0 0 Z " fill="#27426A" transform="translate(176,101)"/>
<path d="M0 0 C-2.31 1.65 -4.62 3.3 -7 5 C-8 2 -8 2 -8 0 C-2.25 -1.125 -2.25 -1.125 0 0 Z " fill="#305B9F" transform="translate(168,68)"/>
<path d="M0 0 C0.33 0.99 0.66 1.98 1 3 C1.66 3.66 2.32 4.32 3 5 C2.01 5 1.02 5 0 5 C-0.33 5.99 -0.66 6.98 -1 8 C-1.66 7.34 -2.32 6.68 -3 6 C-3 5.01 -3 4.02 -3 3 C-2.34 3 -1.68 3 -1 3 C-0.67 2.01 -0.34 1.02 0 0 Z " fill="#DBEDF7" transform="translate(124,60)"/>
<path d="M0 0 C0.99 0 1.98 0 3 0 C1.55746343 3.36591866 -0.33264727 5.51047079 -3 8 C-3 4.38462395 -2.10770759 2.88834003 0 0 Z " fill="#DEF0FB" transform="translate(153,32)"/>
<path d="M0 0 C2.52259061 1.97420135 2.9929808 2.96745642 3.6875 6.1875 C3.790625 7.115625 3.89375 8.04375 4 9 C1.87961365 6.38485683 -0.13091744 3.80362384 -2 1 C-1.34 0.67 -0.68 0.34 0 0 Z " fill="#DDEFF8" transform="translate(170,21)"/>
<path d="M0 0 C-0.33 1.32 -0.66 2.64 -1 4 C-2.65 3.67 -4.3 3.34 -6 3 C-6 2.34 -6 1.68 -6 1 C-4 0 -4 0 0 0 Z " fill="#13305E" transform="translate(179,105)"/>
<path d="M0 0 C1.98 0 3.96 0 6 0 C6 0.99 6 1.98 6 3 C4.02 3 2.04 3 0 3 C0 2.01 0 1.02 0 0 Z " fill="#13377C" transform="translate(77,99)"/>
<path d="M0 0 C-0.66 1.98 -1.32 3.96 -2 6 C-3.32 5.34 -4.64 4.68 -6 4 C-6 3.34 -6 2.68 -6 2 C-2.25 0 -2.25 0 0 0 Z " fill="#3B4B71" transform="translate(88,121)"/>
<path d="M0 0 C1 3 1 3 0.0625 5.1875 C-0.4634375 6.0846875 -0.4634375 6.0846875 -1 7 C-2.32 6.67 -3.64 6.34 -5 6 C-3.35 4.02 -1.7 2.04 0 0 Z " fill="#DEF1FB" transform="translate(172,62)"/>
<path d="M0 0 C0.33 0.66 0.66 1.32 1 2 C-0.32 3.32 -1.64 4.64 -3 6 C-3.33 4.35 -3.66 2.7 -4 1 C-2.68 0.67 -1.36 0.34 0 0 Z " fill="#DEF5FC" transform="translate(159,26)"/>
<path d="M0 0 C5.53846154 -0.36923077 5.53846154 -0.36923077 7.875 1.5 C8.24625 1.995 8.6175 2.49 9 3 C8.67 3.66 8.34 4.32 8 5 C5.36 3.68 2.72 2.36 0 1 C0 0.67 0 0.34 0 0 Z " fill="#D7E9F9" transform="translate(156,15)"/>
</svg>
